<svg width="49" height="42" viewBox="0 0 49 42" fill="none" xmlns="http://www.w3.org/2000/svg">
<path d="M42.6655 3.20798C40.4705 1.39198 37.6515 0.393977 34.7295 0.393977C31.3545 0.393977 28.0875 1.73598 25.7675 4.07998C25.3505 4.50198 24.9595 4.95498 24.5925 5.44698C21.7515 1.66598 17.0045 -0.274023 12.3095 0.583977C8.41354 1.29098 5.35054 3.43198 3.21154 6.94298C0.193536 11.9 -0.0534638 16.681 2.48154 21.154C3.83654 23.547 5.59454 25.879 7.85654 28.283C11.9995 32.687 16.9035 36.867 23.2905 41.433C23.6985 41.726 24.1355 41.874 24.5915 41.874C25.2935 41.874 25.7675 41.519 26.0025 41.345C31.7655 37.23 36.2925 33.437 40.2505 29.402C42.4605 27.15 44.9685 24.382 46.8025 20.925C47.5885 19.448 48.4845 17.46 48.4315 15.189C48.3135 10.302 46.3745 6.27098 42.6655 3.20798ZM43.8005 19.331C42.1675 22.405 39.8635 24.942 37.8235 27.02C34.1635 30.752 29.9785 34.284 24.5855 38.178C18.7165 33.932 14.1735 30.033 10.3335 25.949C8.26054 23.746 6.65954 21.629 5.43854 19.474C3.50554 16.064 3.72054 12.642 6.11654 8.70998C7.72854 6.06198 10.0165 4.45198 12.9185 3.92498C13.4745 3.82298 14.0375 3.77298 14.5925 3.77298C18.0325 3.77298 21.0795 5.67298 22.8005 8.97198L23.0925 9.52298C23.3925 10.086 24.0105 10.406 24.6205 10.421C25.2595 10.409 25.8365 10.044 26.1175 9.46998C26.7215 8.23798 27.3805 7.28198 28.1845 6.46798C29.8705 4.76698 32.2555 3.78998 34.7295 3.78998C36.8625 3.78998 38.9115 4.51298 40.5005 5.82698C43.4565 8.26798 44.9385 11.358 45.0335 15.266C45.0665 16.741 44.4295 18.147 43.8005 19.331Z" fill="#D74FC7" fill-opacity="0.63"/>
</svg>
