<svg width="34" height="34" viewBox="0 0 34 34" fill="none" xmlns="http://www.w3.org/2000/svg">
<path d="M9.2349 34C6.96273 34 4.83608 33.036 3.30045 31.5004C0.324925 28.5249 -0.504584 23.3301 3.66716 19.1583C6.11145 16.7141 15.9024 6.92376 20.79 2.03518C22.525 0.300126 24.7336 -0.369703 26.8478 0.196783C28.9244 0.7529 30.6262 2.45409 31.1823 4.53028C31.7488 6.64588 31.079 8.85375 29.3443 10.5888L12.9694 26.964C12.0345 27.899 10.9786 28.4523 9.91682 28.5646C8.86577 28.6752 7.86206 28.3369 7.15974 27.6349C5.88575 26.3612 5.7043 23.964 7.82197 21.8473L19.3238 10.3448C19.7963 9.87232 20.5619 9.87232 21.0343 10.3448C21.5068 10.8173 21.5068 11.5832 21.0343 12.0553L9.53283 23.5575C8.53846 24.5515 8.44721 25.5006 8.87061 25.924C9.05621 26.1096 9.3379 26.1933 9.66244 26.1584C10.1605 26.1058 10.7277 25.784 11.2589 25.2528L27.6338 8.87829C28.7571 7.755 29.1877 6.43331 28.8455 5.15725C28.5086 3.9002 27.4793 2.87092 26.2222 2.53393C24.9465 2.19175 23.6245 2.62241 22.5005 3.74605C17.6133 8.63359 7.82197 18.4253 5.37768 20.8689C2.18752 24.059 2.95136 27.7296 5.01096 29.7892C7.07057 31.8488 10.7408 32.6133 13.932 29.4228L31.0548 12.2997C31.5273 11.8272 32.2929 11.8272 32.7653 12.2997C33.2378 12.7722 33.2378 13.5381 32.7653 14.0102L15.6425 31.1337C13.6244 33.1525 11.3654 34 9.2349 34Z" fill="#D74FC7"/>
</svg>
