<svg width="39" height="35" viewBox="0 0 39 35" fill="none" xmlns="http://www.w3.org/2000/svg">
<path d="M8.98696 0H30.013C34.9304 0 39 4.06956 39 8.98696V16.2783C39 21.1957 34.9304 25.2652 30.013 25.2652H20.9413L12.1239 34.0826C12.0391 34.0826 11.2761 35.0152 10.2587 34.6761C9.58043 34.5065 9.15652 33.913 9.15652 33.2348V25.2652C4.06957 25.2652 0 21.3652 0 16.2783V8.98696C0 4.06956 4.06957 0 8.98696 0ZM8.56304 18.6522C8.05435 18.6522 7.71522 18.313 7.71522 17.8043C7.71522 17.2957 8.05435 16.9565 8.56304 16.9565H20.687C21.1957 16.9565 21.5348 17.2957 21.5348 17.8043C21.5348 18.313 21.1957 18.6522 20.687 18.6522H8.56304ZM8.56304 13.8196C8.05435 13.8196 7.71522 13.3957 7.71522 12.9717C7.71522 12.463 8.05435 12.1239 8.56304 12.1239H30.437C30.9457 12.1239 31.2848 12.463 31.2848 12.9717C31.2848 13.3957 30.9457 13.8196 30.437 13.8196H8.56304ZM8.56304 8.90217C8.05435 8.90217 7.71522 8.56304 7.71522 8.05435C7.71522 7.54565 8.05435 7.20652 8.56304 7.20652H26.113C26.537 7.20652 26.9609 7.54565 26.9609 8.05435C26.9609 8.56304 26.537 8.90217 26.113 8.90217H8.56304ZM30.013 2.37391H8.98696C5.3413 2.37391 2.37391 5.3413 2.37391 8.98696V16.2783C2.37391 19.9239 5.3413 22.8913 8.98696 22.8913H9.41087C10.513 22.8913 11.5304 23.9087 11.5304 25.0109V31.2848L19.9239 22.8913H30.013C33.6587 22.8913 36.6261 19.9239 36.6261 16.2783V8.98696C36.6261 5.3413 33.6587 2.37391 30.013 2.37391Z" fill="#FBC918"/>
</svg>
