<svg width="39" height="30" viewBox="0 0 39 30" fill="none" xmlns="http://www.w3.org/2000/svg">
<path d="M38.8525 13.946C35.6577 7.00552 28.4377 0 19.5 0C10.5623 0 3.34229 7.00552 0.147478 13.946C0.0502916 14.1593 0 14.3909 0 14.6253C0 14.8597 0.0502916 15.0913 0.147478 15.3046C3.34229 22.2451 10.5623 29.2506 19.5 29.2506C28.4377 29.2506 35.6577 22.2451 38.8525 15.3046C38.9497 15.0913 39 14.8597 39 14.6253C39 14.3909 38.9497 14.1593 38.8525 13.946ZM19.5 26.0005C12.332 26.0005 6.26248 20.2284 3.42842 14.6253C6.26248 9.02218 12.332 3.25007 19.5 3.25007C26.668 3.25007 32.7375 9.02218 35.5716 14.6253C32.7375 20.2284 26.668 26.0005 19.5 26.0005Z" fill="#FBC918"/>
<path d="M19.5002 6.50012C17.8932 6.50012 16.3222 6.97665 14.9861 7.86946C13.6499 8.76226 12.6085 10.0312 11.9935 11.5159C11.3785 13.0006 11.2176 14.6343 11.5311 16.2104C11.8446 17.7866 12.6185 19.2343 13.7548 20.3706C14.8911 21.507 16.3389 22.2808 17.915 22.5943C19.4912 22.9078 21.1249 22.7469 22.6095 22.132C24.0942 21.517 25.3632 20.4756 26.256 19.1394C27.1488 17.8032 27.6253 16.2323 27.6253 14.6253C27.6228 12.4712 26.7659 10.406 25.2427 8.88278C23.7195 7.35957 21.6543 6.5027 19.5002 6.50012ZM19.5002 19.5004C18.536 19.5004 17.5934 19.2145 16.7917 18.6788C15.99 18.1431 15.3651 17.3817 14.9962 16.4909C14.6272 15.6001 14.5306 14.6199 14.7187 13.6742C14.9069 12.7285 15.3712 11.8599 16.053 11.1781C16.7347 10.4963 17.6034 10.032 18.5491 9.84386C19.4948 9.65576 20.475 9.7523 21.3658 10.1213C22.2566 10.4903 23.018 11.1151 23.5537 11.9168C24.0893 12.7185 24.3753 13.6611 24.3753 14.6253C24.3753 15.9182 23.8616 17.1582 22.9474 18.0725C22.0331 18.9868 20.7931 19.5004 19.5002 19.5004Z" fill="#FBC918"/>
</svg>
