<svg width="235" height="225" viewBox="0 0 235 225" fill="none" xmlns="http://www.w3.org/2000/svg">
<rect x="0.675781" width="234.325" height="224.871" rx="10" fill="#F1F0F0"/>
<path d="M58.75 157.593C58.8256 157.208 58.9344 156.828 58.9722 156.443C59.2369 153.746 60.3525 151.549 62.4134 149.83C66.2139 146.665 70.6573 144.795 75.1952 143.149C80.532 141.216 85.9964 139.745 91.5743 138.786C93.7345 138.411 95.578 137.461 97.1899 135.971C99.7662 133.585 101.808 130.473 103.51 126.27C102.38 125.223 101.194 124.23 100.125 123.115C95.4646 118.25 92.1462 112.503 89.5984 106.231C87.1971 100.324 85.3677 94.2756 84.7248 87.8718C84.0583 81.2537 83.9354 74.6357 85.6135 68.1588C89.6126 52.7118 100.716 44.404 113.966 42.9674C114.264 42.9333 114.552 42.8261 114.845 42.758C116.845 42.758 118.849 42.758 120.849 42.758C122.546 43.0599 124.257 43.2936 125.93 43.6832C134.212 45.6117 140.863 50.126 145.519 57.4453C148.629 62.3346 150.463 67.8034 151.045 73.6471C151.914 82.4176 151.238 91.081 148.544 99.4571C146.072 107.151 142.895 114.524 137.672 120.758C136.013 122.735 134.387 124.741 132.482 127.049C133.848 130.434 136.117 134.213 139.742 137.008C141.818 138.61 144.323 138.742 146.71 139.273C154.429 140.977 162.011 143.12 169.031 146.952C170.515 147.761 171.886 148.808 173.243 149.84C175.19 151.325 176.367 153.361 176.613 155.835C176.84 158.075 176.887 160.339 176.925 162.594C176.944 163.709 176.188 164.396 175.091 164.479C174.826 164.498 174.552 164.484 174.283 164.484C136.665 164.484 99.0429 164.479 61.4255 164.503C60.3005 164.508 59.3976 164.279 58.75 163.295C58.75 161.396 58.75 159.492 58.75 157.593ZM173.285 160.636C173.214 159.477 173.12 158.455 173.087 157.432C173.025 155.202 172.136 153.434 170.279 152.28C168.312 151.062 166.355 149.772 164.266 148.803C157.79 145.808 150.96 143.918 143.987 142.642C141.061 142.102 138.452 141.026 136.235 139.005C132.43 135.542 129.957 131.145 128.09 126.358C127.674 125.296 128.18 124.556 128.998 123.806C131.205 121.79 133.498 119.823 135.403 117.519C139.076 113.083 141.43 107.857 143.548 102.457C147.542 92.2595 148.672 81.7748 146.852 71.0174C145.453 62.7436 141.416 56.0136 134.453 51.3921C128.322 47.3356 121.567 46.1084 114.373 46.7512C102.829 47.7836 93.0444 55.848 89.6929 67.2482C87.5563 74.5334 87.684 81.9355 88.653 89.3717C89.2911 94.2659 90.714 98.9165 92.5197 103.489C95.6962 111.544 99.8418 118.824 106.88 123.986C107.717 124.6 107.967 125.437 107.589 126.387C105.755 131.009 103.406 135.299 99.7756 138.713C97.8375 140.534 95.6111 141.751 93.0302 142.384C87.8021 143.665 82.5646 144.917 77.4075 146.451C73.2335 147.692 69.2959 149.553 65.6231 152.036C62.4465 154.184 62.4654 157.325 62.4749 160.636C99.4353 160.636 136.268 160.636 173.285 160.636Z" fill="#1E1E1E" fill-opacity="0.35"/>
</svg>
