<svg width="220" height="57" viewBox="0 0 220 57" fill="none" xmlns="http://www.w3.org/2000/svg">
<path d="M10.3299 15.7912L14.3299 17.803C15.0662 18.1265 15.8674 18.2723 16.6696 18.2286C17.4718 18.185 18.2527 17.9531 18.9499 17.5515L22.73 15.077C23.3804 14.6021 23.9098 13.9789 24.2748 13.2586C24.6398 12.5383 24.8301 11.7412 24.8299 10.9326L24.59 6.39598C24.5024 5.59397 24.2288 4.82374 23.7911 4.14757C23.3533 3.4714 22.7638 2.90809 22.0699 2.50311L18.0699 0.440989C17.3351 0.113666 16.5339 -0.0350076 15.7313 0.00693888C14.9287 0.0488854 14.1471 0.280244 13.4499 0.682407L9.67004 3.15695C9.02074 3.63305 8.49215 4.25641 8.12735 4.97654C7.76245 5.69657 7.57145 6.49315 7.56995 7.3013L7.80994 11.838C7.88764 12.6509 8.15674 13.4335 8.59494 14.121C9.03314 14.8085 9.62794 15.3811 10.3299 15.7912Z" fill="#414042"/>
<path d="M34.4599 21.6658L30.4599 19.6037C29.7254 19.2803 28.9258 19.1347 28.1252 19.1783C27.3246 19.222 26.5454 19.4538 25.8499 19.8552L22.0299 22.3297C21.383 22.808 20.8561 23.4319 20.4915 24.1515C20.1269 24.8711 19.9345 25.6664 19.9299 26.4741L20.17 31.0107C20.2575 31.8129 20.5311 32.5831 20.9688 33.2593C21.4066 33.9354 21.9961 34.4987 22.6899 34.9036L26.6899 36.9154C27.4231 37.2427 28.2226 37.3914 29.0237 37.3495C29.8247 37.3075 30.6045 37.0761 31.2999 36.674L35.0899 34.1995C35.7371 33.7191 36.2639 33.0934 36.6284 32.3721C36.993 31.651 37.1853 30.8541 37.1899 30.0451L36.9499 25.5185C36.8582 24.7267 36.5857 23.967 36.1538 23.2986C35.7218 22.6303 35.1421 22.0715 34.4599 21.6658Z" fill="#414042"/>
<path d="M46.8 40.7983L42.8 38.7865C42.0651 38.4591 41.264 38.3104 40.4614 38.3524C39.6588 38.3943 38.8773 38.6257 38.1801 39.0279L34.4002 41.5025C33.752 41.9796 33.2243 42.6032 32.8596 43.3231C32.4948 44.0429 32.3031 44.8389 32.3 45.6468L32.5402 50.1835C32.6359 50.9726 32.9112 51.729 33.3448 52.3936C33.7783 53.0583 34.3586 53.6135 35.0402 54.016L39.0402 56.0278C39.7764 56.3512 40.5776 56.497 41.3798 56.4533C42.182 56.4097 42.9628 56.1778 43.6601 55.7764L47.4501 53.3018C48.0976 52.8246 48.6242 52.2007 48.9873 51.4807C49.3504 50.7607 49.5398 49.9648 49.5402 49.1575L49.3301 44.7013C49.2438 43.8962 48.9697 43.1231 48.53 42.4448C48.0904 41.7666 47.4975 41.2024 46.8 40.7983Z" fill="#414042"/>
<path d="M17.33 29.5319L17.14 26.0012C17.1446 25.1935 17.3369 24.3982 17.7016 23.6786C18.0662 22.959 18.593 22.3351 19.24 21.8568L26.61 17.0385C27.3054 16.6372 28.0847 16.4053 28.8853 16.3616C29.6859 16.318 30.4855 16.4637 31.22 16.787L34.36 18.3965C35.0949 18.7238 35.896 18.8726 36.6986 18.8307C37.5013 18.7887 38.2828 18.5572 38.98 18.1551L42.76 15.6705C43.4087 15.1939 43.9368 14.5704 44.3016 13.8504C44.6664 13.1305 44.8577 12.3343 44.86 11.5261L44.62 6.99953C44.534 6.1957 44.261 5.42347 43.8232 4.74548C43.3854 4.0674 42.7951 3.50258 42.1 3.09659L38.1 1.03448C37.3638 0.711075 36.5626 0.565318 35.7603 0.608975C34.9581 0.652631 34.1772 0.884494 33.48 1.28595L29.62 3.72026C28.9725 4.19746 28.4459 4.82133 28.0828 5.54136C27.7197 6.26139 27.5303 7.05727 27.53 7.86461L27.71 11.3954C27.7097 12.2028 27.5202 12.9987 27.1571 13.7187C26.794 14.4387 26.2674 15.0626 25.62 15.5397L18.25 20.358C17.5528 20.7602 16.7713 20.9917 15.9687 21.0336C15.166 21.0755 14.3649 20.9268 13.63 20.5994L10.5 19C9.7651 18.6727 8.964 18.5241 8.1613 18.566C7.3587 18.6079 6.5772 18.8393 5.88 19.2415L2.1 21.716C1.4507 22.1921 0.922201 22.8155 0.557301 23.5356C0.192401 24.2557 0.0015 25.0522 0 25.8604L0.239998 30.397C0.325198 31.2011 0.597898 31.9737 1.0357 32.6519C1.4736 33.3301 2.0643 33.8947 2.76 34.3L6.76 36.3118C7.4962 36.6353 8.2974 36.781 9.0996 36.7374C9.9018 36.6937 10.6828 36.4619 11.38 36.0603L15.16 33.5858C15.8096 33.1258 16.3437 32.52 16.7204 31.8164C17.097 31.1128 17.3057 30.3307 17.33 29.5319Z" fill="#414042"/>
<path d="M56.9201 26.1322C56.831 25.3291 56.5568 24.5582 56.1193 23.8806C55.6818 23.203 55.0931 22.6375 54.4001 22.2292L50.4001 20.2174C49.6637 19.8947 48.8625 19.7494 48.0605 19.793C47.2584 19.8367 46.4775 20.0681 45.7801 20.4689L42 22.9434C41.3519 23.4206 40.8243 24.0442 40.4595 24.764C40.0948 25.4839 39.9031 26.2798 39.9001 27.0878L40.0901 30.6286C40.087 31.4364 39.8954 32.2324 39.5306 32.9522C39.1659 33.6721 38.6382 34.2957 37.99 34.7729L30.63 39.5812C29.9328 39.9827 29.1519 40.2145 28.3497 40.2582C27.5475 40.3018 26.7463 40.1561 26.01 39.8327L22.87 38.2232C22.1355 37.8998 21.3359 37.7541 20.5353 37.7977C19.7347 37.8415 18.9555 38.0732 18.26 38.4747L14.44 40.9392C13.7931 41.4175 13.2663 42.0412 12.9016 42.7609C12.537 43.4804 12.3447 44.2758 12.3401 45.0835L12.58 49.6201C12.6676 50.4222 12.9412 51.1924 13.3789 51.8686C13.8167 52.5448 14.4062 53.1081 15.1001 53.5131L19.1001 55.5752C19.8332 55.9024 20.6327 56.0511 21.4337 56.0091C22.2348 55.9672 23.0146 55.7357 23.7101 55.3337L27.5 52.8591C28.1464 52.3803 28.6729 51.7563 29.0374 51.0369C29.402 50.3174 29.5946 49.5223 29.6001 48.7149L29.4101 45.174C29.4123 44.3659 29.6036 43.5697 29.9684 42.8498C30.3332 42.1298 30.8613 41.5063 31.51 41.0296L38.87 36.2114C39.5672 35.8092 40.3488 35.5778 41.1514 35.5358C41.954 35.4939 42.7551 35.6425 43.49 35.9699L46.62 37.5694C47.3549 37.8967 48.1561 38.0454 48.9587 38.0034C49.7613 37.9615 50.5428 37.7301 51.24 37.3279L55.0301 34.8534C55.6769 34.3756 56.2031 33.7516 56.5661 33.0318C56.9292 32.3119 57.1189 31.5162 57.12 30.7091L56.9201 26.1322Z" fill="#414042"/>
<path d="M82.76 39.7329H107.24V41.4609H80.84V7.8609H106.76V9.58891H82.76V22.8369H104.84V24.5649H82.76V39.7329ZM113.188 41.4609V7.8609H115.108V41.4609H113.188ZM123.173 10.7409V7.8609H125.093V10.7409H123.173ZM123.173 41.4609V16.5009H125.093V41.4609H123.173ZM132.485 36.4689V34.3089H134.405V36.3729C134.405 37.5569 134.661 38.4209 135.173 38.9649C135.717 39.4769 136.581 39.7329 137.765 39.7329H151.685C152.869 39.7329 153.717 39.4769 154.229 38.9649C154.773 38.4209 155.045 37.5569 155.045 36.3729V33.2049C155.045 32.0529 154.789 31.2209 154.277 30.7089C153.765 30.1969 152.901 29.8769 151.685 29.7489L137.957 28.3089C136.293 28.1489 135.045 27.6689 134.213 26.8689C133.381 26.0369 132.965 24.8209 132.965 23.2209V21.4929C132.965 18.1649 134.629 16.5009 137.957 16.5009H151.301C154.629 16.5009 156.293 18.1649 156.293 21.4929V23.5089H154.373V21.5889C154.373 20.4049 154.101 19.5569 153.557 19.0449C153.045 18.5009 152.197 18.2289 151.013 18.2289H138.245C137.061 18.2289 136.197 18.5009 135.653 19.0449C135.141 19.5569 134.885 20.4049 134.885 21.5889V23.0289C134.885 24.1809 135.141 25.0129 135.653 25.5249C136.197 26.0369 137.061 26.3569 138.245 26.4849L151.973 27.9249C153.637 28.0849 154.885 28.5809 155.717 29.4129C156.549 30.2129 156.965 31.4129 156.965 33.0129V36.4689C156.965 39.7969 155.301 41.4609 151.973 41.4609H137.477C134.149 41.4609 132.485 39.7969 132.485 36.4689ZM185.939 16.5009H188.099L174.323 42.7089C172.915 45.3969 171.507 47.1409 170.099 47.9409C168.691 48.7409 166.451 49.1409 163.379 49.1409H162.275V47.4129H163.955C166.259 47.4129 167.987 47.0769 169.139 46.4049C170.291 45.7329 171.411 44.3729 172.499 42.3249L173.171 41.0289L160.355 16.5009H162.611L174.227 39.0609L185.939 16.5009ZM208.229 16.5009C210.821 16.5009 212.661 17.0609 213.749 18.1809C214.869 19.2689 215.429 21.1089 215.429 23.7009V41.4609H213.989L213.653 37.5249L211.061 39.2529C209.621 40.1809 208.357 40.7889 207.269 41.0769C206.181 41.3329 204.613 41.4609 202.565 41.4609H196.229C194.277 41.4609 192.821 40.9969 191.861 40.0689C190.933 39.1409 190.469 37.6849 190.469 35.7009V33.3969C190.469 31.4129 190.933 29.9569 191.861 29.0289C192.821 28.1009 194.277 27.6369 196.229 27.6369H213.509V23.7969C213.509 21.6529 213.109 20.1969 212.309 19.4289C211.541 18.6289 210.085 18.2289 207.941 18.2289H197.957C196.357 18.2289 195.221 18.5649 194.549 19.2369C193.877 19.9089 193.541 21.0449 193.541 22.6449V23.9889H191.621V22.5489C191.621 20.4689 192.117 18.9489 193.109 17.9889C194.101 16.9969 195.621 16.5009 197.669 16.5009H208.229ZM210.245 37.7649L213.509 35.5569V29.3649H196.517C195.013 29.3649 193.941 29.6849 193.301 30.3249C192.693 30.9329 192.389 31.9889 192.389 33.4929V35.6049C192.389 37.1089 192.693 38.1809 193.301 38.8209C193.941 39.4289 195.013 39.7329 196.517 39.7329H202.949C205.893 39.7329 208.325 39.0769 210.245 37.7649Z" fill="#414042"/>
</svg>
