<svg width="50" height="50" viewBox="0 0 50 50" fill="none" xmlns="http://www.w3.org/2000/svg">
<path d="M2.08398 18.75L6.25065 22.9167C16.6048 12.5625 33.3965 12.5625 43.7507 22.9167L47.9173 18.75C35.2715 6.10417 14.7507 6.10417 2.08398 18.75ZM18.7507 35.4167L25.0007 41.6667L31.2507 35.4167C30.4307 34.5945 29.4565 33.9422 28.3841 33.4971C27.3116 33.0521 26.1618 32.823 25.0007 32.823C23.8395 32.823 22.6897 33.0521 21.6172 33.4971C20.5448 33.9422 19.5706 34.5945 18.7507 35.4167ZM10.4173 27.0833L14.584 31.25C17.3475 28.4888 21.0941 26.9378 25.0007 26.9378C28.9072 26.9378 32.6539 28.4888 35.4173 31.25L39.584 27.0833C31.5423 19.0417 18.4798 19.0417 10.4173 27.0833Z" fill="white"/>
</svg>
