<svg width="50" height="50" viewBox="0 0 50 50" fill="none" xmlns="http://www.w3.org/2000/svg">
<path d="M18.979 3.07588C19.5416 3.22547 20.0204 3.58731 20.3103 4.08186C20.6001 4.5764 20.6772 5.1632 20.5245 5.71327L19.8353 8.17867C19.1021 10.8046 19.8441 13.6111 21.7827 15.5634C23.9237 17.722 27.2084 18.3642 30.0385 17.1802L30.8803 16.8276C31.7196 16.4763 32.4774 15.9624 33.1079 15.3169C33.7385 14.6715 34.2288 13.9079 34.5492 13.0722C35.022 11.8402 35.2644 10.5351 35.2648 9.21929V8.73195C35.2648 8.16172 35.4965 7.61484 35.909 7.21163C36.3215 6.80842 36.881 6.58189 37.4644 6.58189C38.0478 6.58189 38.6072 6.80842 39.0197 7.21163C39.4322 7.61484 39.664 8.16172 39.664 8.73195V9.21929C39.664 11.0511 39.3267 12.8686 38.6668 14.583C37.6936 17.1225 35.7875 19.2166 33.3203 20.4569L33.1062 20.5888C32.2582 21.1191 31.5753 21.8668 31.1321 22.7505C30.6889 23.6341 30.5023 24.6197 30.5928 25.5998L30.9712 29.682C31.0298 29.9372 31.0709 30.1981 31.0944 30.4618L32.3232 43.6545C32.3761 44.2225 32.196 44.7877 31.8225 45.2258C31.4491 45.664 30.9129 45.9392 30.3318 45.9909C29.7508 46.0426 29.1725 45.8666 28.7243 45.5015C28.276 45.1365 27.9945 44.6123 27.9416 44.0444L26.7157 30.8488C26.6999 30.6809 26.6573 30.5165 26.5896 30.3615C26.4856 30.1554 26.3376 29.9736 26.1555 29.8283C25.9897 29.6643 25.7896 29.5372 25.569 29.4556L25.522 29.4412C25.1958 29.3494 24.8486 29.358 24.5275 29.4656C24.2064 29.5733 23.927 29.775 23.7272 30.0433L20.8765 33.8761C20.2605 34.7029 19.9663 35.7173 20.0465 36.7371L20.5949 43.6861C20.6393 44.2548 20.4507 44.8174 20.0706 45.2502C19.6906 45.683 19.1502 45.9504 18.5684 45.9938C17.9866 46.0371 17.411 45.8528 16.9682 45.4813C16.5255 45.1098 16.2518 44.5816 16.2075 44.0129L15.662 37.0668C15.5014 35.0285 16.0888 33.0009 17.319 31.3476L20.1697 27.5148C20.5421 27.016 20.8413 26.4541 20.9029 25.8378L21.1434 23.4813C21.3193 21.7641 20.372 20.1616 19.0757 18.9891C17.4356 17.4992 16.2438 15.599 15.6296 13.4942C15.0155 11.3895 15.0023 9.16067 15.5916 7.04917L16.2779 4.58378C16.4315 4.03371 16.8024 3.56582 17.3089 3.28304C17.8155 3.00026 18.4162 2.92574 18.979 3.07588ZM27.1996 14.8238C28.3663 14.8238 29.4853 14.3707 30.3103 13.5643C31.1353 12.7579 31.5988 11.6641 31.5988 10.5237C31.5988 9.3832 31.1353 8.28945 30.3103 7.48302C29.4853 6.6766 28.3663 6.22355 27.1996 6.22355C26.0329 6.22355 24.9139 6.6766 24.0889 7.48302C23.2639 8.28945 22.8004 9.3832 22.8004 10.5237C22.8004 11.6641 23.2639 12.7579 24.0889 13.5643C24.9139 14.3707 26.0329 14.8238 27.1996 14.8238ZM9.93422 16.7416C9.88268 16.5029 9.74877 16.2888 9.55495 16.1352C9.36112 15.9816 9.11916 15.8977 8.86961 15.8977C8.62007 15.8977 8.37811 15.9816 8.18428 16.1352C7.99046 16.2888 7.85655 16.5029 7.80501 16.7416L7.5 18.1291C7.38366 18.6604 7.11281 19.1476 6.72 19.5321C6.3272 19.9165 5.82915 20.1819 5.28574 20.2964L3.86333 20.5916C3.61917 20.642 3.40014 20.7729 3.24296 20.9624C3.08578 21.1518 3 21.3883 3 21.6323C3 21.8762 3.08578 22.1127 3.24296 22.3022C3.40014 22.4916 3.61917 22.6225 3.86333 22.6729L5.28574 22.971C5.82915 23.0854 6.3272 23.3508 6.72 23.7353C7.11281 24.1198 7.38366 24.6069 7.5 25.1383L7.80501 26.5258C7.85655 26.7644 7.99046 26.9785 8.18428 27.1322C8.37811 27.2858 8.62007 27.3697 8.86961 27.3697C9.11916 27.3697 9.36112 27.2858 9.55495 27.1322C9.74877 26.9785 9.88268 26.7644 9.93422 26.5258L10.2392 25.1383C10.3556 24.6069 10.6264 24.1198 11.0192 23.7353C11.412 23.3508 11.9101 23.0854 12.4535 22.971L13.8759 22.6729C14.1201 22.6225 14.3391 22.4916 14.4963 22.3022C14.6535 22.1127 14.7392 21.8762 14.7392 21.6323C14.7392 21.3883 14.6535 21.1518 14.4963 20.9624C14.3391 20.7729 14.1201 20.642 13.8759 20.5916L12.4535 20.2964C11.9101 20.1819 11.412 19.9165 11.0192 19.5321C10.6264 19.1476 10.3556 18.6604 10.2392 18.1291L9.93422 16.7416ZM41.1304 23.0656C41.6436 23.0656 42.0865 23.4154 42.195 23.9084L42.5 25.2959C42.6163 25.8273 42.8872 26.3144 43.28 26.6989C43.6728 27.0834 44.1708 27.3488 44.7143 27.4632L46.1367 27.7585C46.3808 27.8089 46.5999 27.9397 46.757 28.1292C46.9142 28.3187 47 28.5552 47 28.7991C47 29.043 46.9142 29.2795 46.757 29.469C46.5999 29.6584 46.3808 29.7893 46.1367 29.8397L44.7143 30.1379C44.1708 30.2523 43.6728 30.5177 43.28 30.9021C42.8872 31.2866 42.6163 31.7738 42.5 32.3051L42.195 33.6926C42.1434 33.9313 42.0095 34.1454 41.8157 34.299C41.6219 34.4527 41.3799 34.5365 41.1304 34.5365C40.8808 34.5365 40.6389 34.4527 40.445 34.299C40.2512 34.1454 40.1173 33.9313 40.0658 33.6926L39.7608 32.3051C39.6444 31.7738 39.3736 31.2866 38.9808 30.9021C38.588 30.5177 38.0899 30.2523 37.5465 30.1379L36.1241 29.8397C35.8799 29.7893 35.6609 29.6584 35.5037 29.469C35.3465 29.2795 35.2608 29.043 35.2608 28.7991C35.2608 28.5552 35.3465 28.3187 35.5037 28.1292C35.6609 27.9397 35.8799 27.8089 36.1241 27.7585L37.5465 27.4632C38.0899 27.3488 38.588 27.0834 38.9808 26.6989C39.3736 26.3144 39.6444 25.8273 39.7608 25.2959L40.0658 23.9084C40.1175 23.67 40.2515 23.4561 40.4453 23.3027C40.6391 23.1493 40.881 23.0656 41.1304 23.0656Z" fill="white"/>
</svg>
