<svg width="50" height="50" viewBox="0 0 50 50" fill="none" xmlns="http://www.w3.org/2000/svg">
<path d="M4.16602 37.4993C8.79102 35.416 13.416 33.3327 18.0619 33.3327C22.6869 33.3327 27.3118 37.4993 31.9369 37.4993C36.5827 37.4993 41.2077 33.3327 45.8327 33.3327V39.5827C41.2077 39.5827 36.5827 43.7493 31.9369 43.7493C27.3118 43.7493 22.6869 39.5827 18.0619 39.5827C13.416 39.5827 8.79102 41.666 4.16602 43.7493V37.4993ZM18.0619 27.0827C16.4369 27.0827 14.8327 27.3327 13.2285 27.7493L23.4785 20.5827L21.3118 17.9993C21.0202 17.6452 20.8327 17.166 20.8327 16.666C20.8327 15.9577 21.1868 15.3118 21.7493 14.9368L33.666 6.60352L36.0618 9.99935L25.9785 17.0618L36.8744 30.041C35.2285 30.7285 33.5827 31.2493 31.9369 31.2493C27.3118 31.2493 22.6869 27.0827 18.0619 27.0827ZM37.4994 14.5827C38.6044 14.5827 39.6642 15.0217 40.4456 15.8031C41.227 16.5845 41.666 17.6443 41.666 18.7493C41.666 19.8544 41.227 20.9142 40.4456 21.6956C39.6642 22.477 38.6044 22.916 37.4994 22.916C36.3943 22.916 35.3345 22.477 34.5531 21.6956C33.7717 20.9142 33.3327 19.8544 33.3327 18.7493C33.3327 17.6443 33.7717 16.5845 34.5531 15.8031C35.3345 15.0217 36.3943 14.5827 37.4994 14.5827Z" fill="white"/>
</svg>
