<svg width="50" height="50" viewBox="0 0 50 50" fill="none" xmlns="http://www.w3.org/2000/svg">
<path d="M23.4375 12.5723V3.125C23.4375 2.7106 23.2729 2.31317 22.9799 2.02015C22.6868 1.72712 22.2894 1.5625 21.875 1.5625C21.4606 1.5625 21.0632 1.72712 20.7702 2.02015C20.4771 2.31317 20.3125 2.7106 20.3125 3.125V12.5723C15.9078 12.9744 11.8277 15.059 8.92079 18.3927C6.01391 21.7263 4.50406 26.0522 4.70532 30.4707C4.90657 34.8891 6.80343 39.0599 10.0013 42.1154C13.1992 45.171 17.452 46.8761 21.875 46.8761C26.298 46.8761 30.5508 45.171 33.7487 42.1154C36.9466 39.0599 38.8435 34.8891 39.0447 30.4707C39.246 26.0522 37.7361 21.7263 34.8292 18.3927C31.9224 15.059 27.8422 12.9744 23.4375 12.5723ZM35.8477 28.125H29.6426C29.3477 22.5859 27.5352 18.6797 25.8457 16.1992C28.4998 16.9852 30.8636 18.5353 32.6423 20.6562C34.421 22.777 35.5358 25.3746 35.8477 28.125ZM17.2344 31.25H26.5156C26.125 37.7969 23.3653 41.5918 21.875 43.1797C20.3828 41.5879 17.6231 37.7949 17.2344 31.25ZM17.2344 28.125C17.625 21.5781 20.3848 17.7832 21.875 16.1953C23.3672 17.7871 26.127 21.5801 26.5156 28.125H17.2344ZM17.9043 16.1992C16.211 18.6797 14.4024 22.5859 14.1074 28.125H7.90236C8.2142 25.3746 9.32902 22.777 11.1077 20.6562C12.8864 18.5353 15.2503 16.9852 17.9043 16.1992ZM7.90236 31.25H14.1074C14.4024 36.7891 16.2149 40.6953 17.9043 43.1758C15.2503 42.3898 12.8864 40.8397 11.1077 38.7188C9.32902 36.598 8.2142 34.0004 7.90236 31.25ZM25.8457 43.1758C27.5352 40.6953 29.3477 36.7891 29.6426 31.25H35.8477C35.5358 34.0004 34.421 36.598 32.6423 38.7188C30.8636 40.8397 28.4998 42.3898 25.8457 43.1758ZM50 17.1875C50 17.6019 49.8354 17.9993 49.5424 18.2924C49.2493 18.5854 48.8519 18.75 48.4375 18.75H46.875V20.3125C46.875 20.7269 46.7104 21.1243 46.4174 21.4174C46.1243 21.7104 45.7269 21.875 45.3125 21.875C44.8981 21.875 44.5007 21.7104 44.2077 21.4174C43.9146 21.1243 43.75 20.7269 43.75 20.3125V18.75H42.1875C41.7731 18.75 41.3757 18.5854 41.0827 18.2924C40.7896 17.9993 40.625 17.6019 40.625 17.1875C40.625 16.7731 40.7896 16.3757 41.0827 16.0826C41.3757 15.7896 41.7731 15.625 42.1875 15.625H43.75V14.0625C43.75 13.6481 43.9146 13.2507 44.2077 12.9576C44.5007 12.6646 44.8981 12.5 45.3125 12.5C45.7269 12.5 46.1243 12.6646 46.4174 12.9576C46.7104 13.2507 46.875 13.6481 46.875 14.0625V15.625H48.4375C48.8519 15.625 49.2493 15.7896 49.5424 16.0826C49.8354 16.3757 50 16.7731 50 17.1875ZM29.6875 7.8125C29.6875 7.3981 29.8521 7.00067 30.1452 6.70765C30.4382 6.41462 30.8356 6.25 31.25 6.25H34.375V3.125C34.375 2.7106 34.5396 2.31317 34.8327 2.02015C35.1257 1.72712 35.5231 1.5625 35.9375 1.5625C36.3519 1.5625 36.7493 1.72712 37.0424 2.02015C37.3354 2.31317 37.5 2.7106 37.5 3.125V6.25H40.625C41.0394 6.25 41.4368 6.41462 41.7299 6.70765C42.0229 7.00067 42.1875 7.3981 42.1875 7.8125C42.1875 8.2269 42.0229 8.62433 41.7299 8.91735C41.4368 9.21038 41.0394 9.375 40.625 9.375H37.5V12.5C37.5 12.9144 37.3354 13.3118 37.0424 13.6049C36.7493 13.8979 36.3519 14.0625 35.9375 14.0625C35.5231 14.0625 35.1257 13.8979 34.8327 13.6049C34.5396 13.3118 34.375 12.9144 34.375 12.5V9.375H31.25C30.8356 9.375 30.4382 9.21038 30.1452 8.91735C29.8521 8.62433 29.6875 8.2269 29.6875 7.8125Z" fill="white"/>
</svg>
