<svg width="50" height="50" viewBox="0 0 50 50" fill="none" xmlns="http://www.w3.org/2000/svg">
<path d="M24.5298 26.2377C27.8951 26.3182 31.1256 27.2877 33.9151 28.9852C28.8594 34.2965 21.6861 37.9802 14.3763 38.7765C12.837 37.6823 11.4838 36.3475 10.3688 34.8232C15.7535 33.9832 20.6711 31.1482 24.0731 26.8205L24.5298 26.2377ZM39.2701 33.8887C37.6908 36.3755 35.5088 38.4228 32.9266 39.8409C30.3445 41.2589 27.446 42.0016 24.5001 42C22.3239 42.0028 20.1664 41.5986 18.1388 40.8082C24.9691 39.284 31.3986 35.5477 36.0764 30.5182C37.2772 31.5043 38.3501 32.6366 39.2701 33.8887ZM41.3422 23.3765L41.3456 23.38L41.9932 24.0327C42.0634 26.541 41.5919 29.0348 40.6106 31.3442C38.6528 28.9931 36.2154 27.0874 33.4614 25.7546C30.7074 24.4218 27.7004 23.6928 24.6418 23.6162C23.2091 21.1217 22.4532 18.296 22.4491 15.4192C29.5341 15.551 36.2977 18.3997 41.3422 23.3765ZM22.6556 12.7977C22.8643 11.4918 23.2291 10.2156 23.7423 8.99675L24.5823 7C32.6044 7.03675 39.3524 12.4722 41.3789 19.859C36.1177 15.4514 29.5154 12.9616 22.6538 12.7977M22.0098 25.1982C20.4017 27.2423 18.3901 28.9335 16.1 30.1665C13.3459 23.5753 13.1463 16.1944 15.54 9.464C17.4143 8.34402 19.4827 7.58707 21.6371 7.23275L21.3221 7.97825C20.187 10.6735 19.6855 13.5934 19.8564 16.5129C20.0272 19.4325 20.8657 22.2739 22.3073 24.8185L22.0098 25.1982ZM12.0033 12.25C8.79141 15.5178 6.99421 19.918 7.00001 24.5C7.00001 27.3297 7.67202 30.0037 8.86552 32.3697C10.535 32.207 12.1608 31.8272 13.7078 31.2497C11.1809 25.2431 10.5882 18.5985 12.012 12.2395L12.0033 12.25Z" fill="white"/>
</svg>
