<svg width="1235" height="872" viewBox="0 0 1235 872" fill="none" xmlns="http://www.w3.org/2000/svg">
<path d="M1217.63 85.7807C1217.1 86.4063 1215.62 86.9262 1214.87 86.6808C1213.94 86.3858 1212.91 85.3673 1212.64 84.4789C1211.7 81.3065 1211.25 78.0128 1210.26 74.8544C1204.26 55.7785 1191.94 41.0173 1173.4 30.6833C1157.82 21.9986 1140.79 18.609 1122.56 20.0252C1120.53 20.1794 1118.5 20.4868 1117.27 20.634C1114.87 21.0535 1113.27 21.3205 1111.67 21.6136C1109.57 22.0007 1108.07 21.3335 1107.64 19.7872C1107.23 18.2982 1108.22 16.8388 1110.32 16.5113C1115.2 15.747 1120.08 14.879 1125 14.5976C1141.37 13.6551 1156.91 16.5851 1171.38 23.5591C1191.97 33.4874 1206.38 48.44 1214.1 68.5288C1215.9 73.2148 1216.91 78.161 1218.14 83.0209C1218.35 83.8855 1218.2 85.1295 1217.63 85.7807ZM1131.6 74.7284C1137.11 69.7124 1142.73 68.8575 1147.84 72.0297C1151.81 74.4989 1154.75 80.1499 1150.62 86.936C1151.24 87.1115 1152.04 87.1732 1152.62 87.5222C1157.32 90.3819 1162 93.2791 1166.67 96.1995C1170.88 98.8343 1172.51 103.598 1170.76 107.808C1169.99 109.653 1168.67 110.704 1166.53 111.273C1154.65 114.441 1143.27 118.692 1133.42 125.724C1129.69 128.389 1126.45 131.629 1123.02 134.644C1122.43 135.165 1122.03 135.861 1121.46 136.573C1125.58 139.823 1129.62 143.007 1133.66 146.192C1138.94 150.344 1144.22 154.494 1149.5 158.654C1152.31 160.868 1152.84 163.939 1150.79 166.768C1148.32 170.167 1145.79 173.532 1143.21 176.87C1141.01 179.724 1136.87 180.805 1132.82 179.675C1130.46 179.018 1128.36 177.897 1126.96 176.036C1126.03 174.811 1124.92 173.95 1123.46 173.362C1123.3 173.296 1123.14 173.218 1123.01 173.105C1119.85 170.34 1116.69 167.568 1113.54 164.793C1113.2 164.496 1112.98 163.989 1112.58 163.849C1109.51 162.758 1107.25 160.776 1105.15 158.048C1104.46 159.083 1103.96 159.952 1103.34 160.741C1099.28 165.826 1092.11 167.159 1086.32 163.81C1082.86 161.823 1079.48 159.709 1076.17 157.528C1070.58 153.828 1069.28 147.156 1073.16 141.88C1078.11 135.147 1083.06 128.412 1088.21 121.817C1096.44 111.284 1100.21 99.4391 1100.87 86.7365C1101.16 81.2688 1100.79 75.7732 1100.59 70.296C1100.48 67.4335 1102.24 65.0131 1105.63 63.8346C1109.4 62.5221 1112.93 62.8405 1116.27 64.9486C1120.88 67.8451 1125.53 70.6875 1130.14 73.5686C1130.69 73.9108 1131.14 74.3636 1131.6 74.7284ZM1144.37 76.3181C1141.87 74.8026 1138.73 75.3321 1137.05 77.4029C1140.07 79.3045 1143.1 81.2113 1146.13 83.1052C1147.64 80.6659 1146.96 77.885 1144.37 76.3181ZM1111.17 156.423C1112.27 157.496 1113.88 158.13 1115.22 159.02C1116.11 159.605 1117.16 160.142 1117.71 160.94C1118.68 162.353 1119.89 163.312 1121.55 164.012C1122.48 164.408 1123.17 165.303 1123.92 166.02C1124.97 167.028 1125.77 168.504 1127.04 169.008C1128.97 169.782 1130.21 170.789 1131.29 172.445C1133.33 175.574 1137.23 175.525 1139.45 172.565C1141.46 169.885 1143.43 167.179 1145.51 164.541C1146.27 163.572 1146.21 162.998 1145.19 162.233C1141.69 159.56 1138.26 156.808 1134.81 154.093C1129.31 149.764 1123.82 145.436 1118.16 140.992C1115.62 144.371 1113.24 147.547 1110.86 150.73C1109.11 153.054 1109.06 154.356 1111.17 156.423ZM1112.9 69.2807C1111.41 68.3502 1109.86 68.0626 1108.12 68.6294C1106.89 69.0334 1106.44 69.6364 1106.49 70.96C1106.71 76.0574 1106.96 81.1692 1106.72 86.2586C1106.05 100.989 1101.42 114.526 1091.68 126.548C1086.94 132.39 1082.63 138.522 1078.16 144.546C1075.75 147.795 1076.45 151.274 1079.93 153.465C1083.05 155.431 1086.12 157.464 1089.36 159.233C1090.77 160.004 1092.55 160.19 1094.16 160.643C1094.2 160.48 1094.25 160.317 1094.3 160.154C1096.55 159.915 1097.96 158.632 1099.17 157.021C1104.61 149.736 1110.17 142.524 1115.5 135.165C1120.28 128.56 1126.54 123.394 1133.65 119.013C1143 113.267 1153.3 109.387 1164.02 106.408C1165.29 106.059 1165.61 105.444 1165.63 104.41C1165.66 102.42 1164.43 101.194 1162.75 100.156C1153.74 94.5902 1144.75 88.9937 1135.74 83.4204C1128.13 78.7068 1120.51 74.0086 1112.9 69.2807ZM1129.11 46.0862C1125.23 46.1797 1121.35 46.9724 1117.48 47.5343C1115.52 47.8229 1114.14 47.3784 1113.58 46.0153C1112.91 44.3826 1113.75 42.8361 1115.9 42.4728C1120.04 41.7823 1124.23 40.943 1128.41 40.8444C1147.02 40.3839 1162.67 46.4981 1175.14 59.0256C1183.27 67.2074 1187.95 76.9499 1189.65 87.8939C1189.95 89.8268 1189.03 91.1728 1187.34 91.4274C1185.57 91.7034 1184.3 90.6595 1183.91 88.6207C1183.74 87.702 1183.54 86.7818 1183.35 85.8656C1178.39 62.2199 1155.59 45.4473 1129.11 46.0862Z" fill="#5A3C95" fill-opacity="0.29"/>
<path d="M39.8873 432.115C39.5427 432.224 39.2867 432.566 39.4345 432.952L44.1611 445.314C44.2792 445.623 44.6558 445.849 45.0866 445.712C45.5173 445.575 45.6871 445.26 45.5394 444.874L40.8128 432.513C40.6651 432.127 40.2319 432.005 39.8873 432.115Z" fill="#5A3C95" fill-opacity="0.29"/>
<path d="M45.733 447.536C45.3807 447.647 45.1189 447.991 45.2699 448.38L45.8738 449.936C45.9946 450.247 46.3797 450.475 46.8201 450.337C47.2605 450.198 47.4342 449.882 47.2832 449.493L46.6793 447.938C46.5283 447.549 46.0854 447.426 45.733 447.536Z" fill="#5A3C95" fill-opacity="0.29"/>
<path d="M99.6565 458.685C99.3098 458.795 99.0523 459.137 99.2009 459.524L101.876 466.486C101.994 466.796 102.373 467.023 102.807 466.885C103.24 466.748 103.411 466.433 103.262 466.046L100.588 459.084C100.439 458.697 100.003 458.575 99.6565 458.685Z" fill="#5A3C95" fill-opacity="0.29"/>
<path d="M98.2135 454.832C97.8595 454.943 97.5965 455.288 97.7482 455.678L98.0516 456.458C98.173 456.77 98.5599 456.999 99.0024 456.86C99.4449 456.721 99.6194 456.404 99.4677 456.014L99.1643 455.234C99.0126 454.844 98.5676 454.721 98.2135 454.832Z" fill="#5A3C95" fill-opacity="0.29"/>
<path d="M91.1103 417.351L89.9525 417.714L89.5556 416.694C89.4335 416.381 89.0442 416.151 88.5989 416.29C88.1536 416.429 87.978 416.748 88.1306 417.14L88.5275 418.159L87.3697 418.522C87.0135 418.633 86.7488 418.98 86.9015 419.372C87.0541 419.764 87.4129 419.916 87.8582 419.776L89.016 419.414L89.4128 420.433C89.535 420.747 89.9243 420.977 90.3696 420.838C90.8149 420.698 90.9905 420.38 90.8378 419.988L90.4104 418.89L91.5682 418.528C91.9244 418.416 92.1891 418.07 92.0364 417.677C91.8838 417.285 91.4665 417.24 91.1103 417.351Z" fill="#5A3C95" fill-opacity="0.29"/>
<path d="M90.1582 453.099C89.7999 453.211 89.5336 453.561 89.6872 453.956L92.482 461.152L61.6626 470.819L60.0348 466.628C59.912 466.312 59.5204 466.08 59.0724 466.22C58.6244 466.361 58.4478 466.682 58.6014 467.078L61.9797 475.776C62.7783 477.832 65.3354 478.981 67.7543 478.223L92.8399 470.355C95.1693 469.624 96.4954 467.345 95.6661 465.21L91.1207 453.507C90.9978 453.191 90.5166 452.987 90.1582 453.099ZM92.3792 469.168L67.2936 477.037C65.681 477.542 63.8764 476.778 63.3236 475.354L62.003 471.954L92.912 462.259L94.2327 465.66C94.8751 467.055 93.9919 468.663 92.3792 469.168Z" fill="#5A3C95" fill-opacity="0.29"/>
<path d="M58.2934 463.156C58.6491 463.045 58.9134 462.699 58.7609 462.307L49.2497 437.879L79.931 428.28L80.937 430.864C81.0589 431.177 81.4476 431.407 81.8923 431.268C82.337 431.129 82.5123 430.81 82.3599 430.419L79.6162 423.372C78.8236 421.336 76.2854 420.198 73.8843 420.949L48.9835 428.739C46.6713 429.463 45.355 431.719 46.1781 433.833L57.4575 462.803C57.5489 463.038 57.9376 463.267 58.2934 463.156ZM49.3519 429.942L74.2526 422.152C75.8534 421.651 77.6446 422.408 78.1933 423.817L79.5042 427.184L48.8229 436.782L47.4816 433.337C46.9329 431.928 47.7511 430.442 49.3519 429.942Z" fill="#5A3C95" fill-opacity="0.29"/>
<path d="M58.1223 431.893L68.9496 428.445C69.3105 428.33 69.5786 427.972 69.4239 427.568C69.2692 427.164 68.9057 427.008 68.4546 427.151L57.6272 430.599C57.2663 430.714 56.9982 431.072 57.1529 431.476C57.3076 431.88 57.7613 432.007 58.1223 431.893Z" fill="#5A3C95" fill-opacity="0.29"/>
<path d="M80.23 469.286L76.8123 470.364C76.4525 470.477 76.1853 470.83 76.3395 471.229C76.4936 471.628 76.856 471.783 77.3057 471.641L80.7234 470.563C81.0831 470.45 81.3504 470.097 81.1962 469.698C81.042 469.299 80.5898 469.173 80.23 469.286Z" fill="#5A3C95" fill-opacity="0.29"/>
<path d="M93.3035 429.473L64.7638 438.404C64.407 438.515 64.142 438.862 64.2949 439.255L72.8551 461.245C72.9469 461.481 73.2169 461.661 73.5151 461.656C73.6043 461.628 73.724 461.678 73.8132 461.651C73.9916 461.595 74.1394 461.46 74.198 461.354L77.5976 455.18L100.519 448.008C100.875 447.896 101.14 447.549 100.987 447.156L94.2615 429.878C94.1087 429.486 93.6602 429.362 93.3035 429.473ZM99.4051 446.947L76.8409 454.007C76.6625 454.063 76.5147 454.197 76.4561 454.304L73.7012 459.307L65.9359 439.358L93.1378 430.847L99.4051 446.947Z" fill="#5A3C95" fill-opacity="0.29"/>
<path d="M77.3365 449.79L77.2833 447.348L80.1293 446.457L81.7833 448.399L83.4731 447.871L77.609 441.009L75.4745 441.677L75.6467 450.319L77.3365 449.79ZM77.0142 444.094C77.0091 443.568 76.8847 442.993 76.8796 442.467C77.1515 442.909 77.5427 443.401 77.9035 443.816L79.3467 445.472L77.1233 446.168L77.0142 444.094Z" fill="#5A3C95" fill-opacity="0.29"/>
<path d="M86.9507 446.871C87.8368 446.594 88.4825 445.954 88.5939 445.218L89.0166 446.049L90.4344 445.606C90.2825 445.215 89.9509 444.618 89.7383 444.072L87.1868 437.515L85.5918 438.014L86.8372 441.215C86.4195 440.908 85.6777 440.79 84.7916 441.067C83.2852 441.538 82.3813 443.047 83.1103 444.921C83.7482 446.56 85.4443 447.343 86.9507 446.871ZM85.6295 441.943C86.3384 441.721 87.0523 442.023 87.4422 442.514C87.4725 442.592 87.5333 442.748 87.594 442.904L87.8978 443.685C87.9585 443.841 88.0193 443.997 87.9611 444.103C88.0268 444.783 87.647 445.34 86.9382 445.562C85.9634 445.867 85.0394 445.28 84.6445 444.265C84.3383 443.223 84.5662 442.276 85.6295 441.943Z" fill="#5A3C95" fill-opacity="0.29"/>
<path d="M74.9378 443.189L74.9353 442.927C74.2821 442.781 73.867 442.736 73.629 442.635C73.51 442.585 73.3607 442.456 73.3303 442.378C73.2696 442.222 73.3278 442.116 73.4443 441.905C73.5607 441.693 73.5886 441.509 73.6468 441.403C73.705 441.298 73.6747 441.22 73.6139 441.064C73.5228 440.829 73.3735 440.701 73.1355 440.6C72.8975 440.5 72.69 440.477 72.4241 440.56C72.1583 440.644 72.0115 440.777 71.895 440.989C71.7786 441.2 71.7811 441.462 71.8722 441.696C72.0241 442.087 72.3531 442.421 72.8594 442.701C73.4543 442.952 74.1074 443.098 74.9378 443.189Z" fill="#5A3C95" fill-opacity="0.29"/>
<path d="M72.1342 444.093L72.1317 443.831C71.4786 443.685 71.0634 443.64 70.8254 443.539C70.7064 443.489 70.5571 443.361 70.5267 443.283C70.466 443.126 70.5242 443.021 70.6407 442.809C70.7571 442.597 70.785 442.414 70.8432 442.308C70.9015 442.202 70.8711 442.124 70.8103 441.968C70.7192 441.734 70.5699 441.605 70.3319 441.505C70.094 441.404 69.8864 441.381 69.6205 441.465C69.3547 441.548 69.2079 441.681 69.0914 441.893C68.975 442.105 68.9775 442.366 69.0686 442.601C69.2205 442.991 69.5495 443.326 70.0558 443.605C70.6507 443.857 71.3039 444.002 72.1342 444.093Z" fill="#5A3C95" fill-opacity="0.29"/>
<path d="M91.5761 446.793L91.7558 446.999C92.3734 446.543 92.7834 446.065 92.9859 445.563C93.1885 445.062 93.2138 444.617 93.062 444.226C92.9709 443.992 92.7912 443.786 92.5532 443.685C92.3153 443.585 92.1078 443.562 91.842 443.645C91.5763 443.728 91.4294 443.862 91.313 444.073C91.1966 444.285 91.1687 444.469 91.2598 444.703C91.3205 444.859 91.3509 444.937 91.4699 444.987C91.5888 445.038 91.7382 445.166 91.9761 445.267C92.214 445.367 92.3633 445.496 92.3937 445.574C92.424 445.652 92.3962 445.836 92.338 445.941C92.2797 446.047 92.0165 446.392 91.5761 446.793Z" fill="#5A3C95" fill-opacity="0.29"/>
<path d="M94.3796 445.889L94.5593 446.095C95.1769 445.639 95.587 445.16 95.7895 444.659C95.9921 444.158 96.0174 443.712 95.8655 443.322C95.7744 443.088 95.5948 442.881 95.3568 442.781C95.1189 442.68 94.9114 442.658 94.6456 442.741C94.3798 442.824 94.233 442.958 94.1166 443.169C94.0001 443.381 93.9723 443.565 94.0634 443.799C94.1241 443.955 94.1545 444.033 94.2735 444.083C94.3924 444.133 94.5417 444.262 94.7797 444.362C95.0176 444.463 95.1669 444.591 95.1973 444.669C95.2276 444.748 95.1998 444.931 95.1416 445.037C95.0833 445.143 94.8201 445.488 94.3796 445.889Z" fill="#5A3C95" fill-opacity="0.29"/>
<path d="M58.0844 465.375C58.2041 465.426 58.2933 465.398 58.413 465.448C58.5022 465.42 58.6219 465.471 58.7111 465.443C58.8894 465.387 59.0372 465.253 59.0958 465.147C59.1544 465.04 59.1824 464.855 59.1213 464.698C59.0908 464.62 59.0602 464.541 59.0296 464.463C58.9991 464.384 58.7596 464.283 58.6704 464.311C58.3112 464.159 57.8654 464.298 57.6896 464.618C57.6309 464.724 57.6615 464.803 57.5723 464.831C57.4832 464.858 57.5443 465.016 57.5749 465.094C57.6054 465.173 57.636 465.251 57.7557 465.302C57.8755 465.352 57.9952 465.403 58.0844 465.375Z" fill="#5A3C95" fill-opacity="0.29"/>
<path d="M85.6465 825.423L85.2739 823.764C89.3897 821.953 91.7806 817.576 90.7389 812.936C89.4995 807.416 83.9212 803.671 78.2722 804.568C75.4997 805.007 72.7528 803.164 72.1446 800.454C71.5363 797.745 73.2947 795.186 76.0672 794.746C78.8397 794.307 81.5866 796.151 82.1949 798.86C82.5066 800.248 83.9435 801.213 85.3644 800.987C86.7853 800.762 87.7051 799.424 87.3933 798.035C86.3593 793.429 82.2348 790.085 77.6095 789.627L77.237 787.967C76.9252 786.579 75.4884 785.614 74.0675 785.84C72.6466 786.065 71.7268 787.404 72.0385 788.792L72.4111 790.451C68.2953 792.262 65.9044 796.639 66.9461 801.279C68.1855 806.799 73.7638 810.544 79.4128 809.648C82.1853 809.208 84.9322 811.052 85.5404 813.761C86.1487 816.47 84.3903 819.029 81.6178 819.469C78.8453 819.909 76.0984 818.065 75.4901 815.355C75.1784 813.967 73.7415 813.002 72.3206 813.228C70.8997 813.453 69.9799 814.792 70.2917 816.18C71.3257 820.786 75.4502 824.13 80.0755 824.588L80.448 826.248C80.7598 827.636 82.1966 828.601 83.6175 828.375C85.0384 828.15 85.9582 826.812 85.6465 825.423Z" fill="#5A3C95" fill-opacity="0.29"/>
<path d="M110.698 802.132C106.845 785.11 89.4406 773.553 71.9086 776.309C54.3766 779.066 43.2284 795.149 47.0735 812.137C50.9263 829.159 68.3382 840.75 85.8702 837.994C103.402 835.237 114.543 819.12 110.698 802.132ZM52.3401 811.308C49.1308 797.129 58.4379 783.748 73.0361 781.452C87.6343 779.157 102.159 788.826 105.36 802.971C108.57 817.151 99.2702 830.566 84.672 832.862C70.0738 835.157 55.5418 825.454 52.3401 811.308Z" fill="#5A3C95" fill-opacity="0.29"/>
<path d="M189.924 774.495C187.546 763.988 166.769 761.353 148.415 764.239C136.262 766.15 124.215 770.64 118.13 776.504C110.93 768.036 103.024 761.315 94.9112 756.759C97.8644 754.73 99.4016 751.146 98.5546 747.404C97.3734 742.185 92.0594 738.647 86.6738 739.494L85.7171 739.644L89.7307 715.226C89.947 713.912 89.0615 712.593 87.6892 712.204C77.8244 709.311 68.9148 713.557 60.3285 717.609C50.9816 722.03 42.9311 725.856 34.5911 720.945C33.4479 720.272 32.0859 720.415 31.206 721.229C30.3262 722.043 30.2239 723.375 30.941 724.435L45.3521 745.956L44.3954 746.107C39.0097 746.954 35.6074 751.862 36.7886 757.081C37.6356 760.824 40.6692 763.689 44.2708 764.687C38.0076 772.357 33.0591 782.593 30.0979 794.152C26.77 807.334 26.2652 821.316 28.7631 832.515L28.833 832.824C29.1516 834.231 30.5851 835.215 32.0378 834.987L32.0733 834.981C33.5182 834.718 34.4665 833.396 34.1401 831.954C34.0813 831.856 34.0658 831.787 34.0425 831.684C29.6044 812.399 35.754 780.071 51.7442 764.472L87.7433 758.811C96.9788 762.976 106.625 770.74 114.899 780.71C114.06 782.513 113.791 784.405 114.234 786.362C114.234 786.362 118.026 803.117 118.033 803.151C118.041 803.186 118.041 803.186 118.049 803.22L121.826 819.907C121.833 819.941 121.865 820.079 121.865 820.079L125.641 836.765C125.921 838.001 126.461 839.09 127.206 840.11C119.214 846.63 104.724 849.726 91.3306 851.832L89.311 852.15C65.3589 855.916 47.69 855.993 39.2839 843.981C38.4295 842.799 36.6597 842.438 35.4731 843.193C34.251 843.954 33.9906 845.56 34.8528 846.775C40.2464 854.07 48.1087 858.167 58.864 859.32C69.0489 860.385 81.0163 858.788 91.4333 857.15C107.228 854.63 122.104 851.615 131.398 843.718C139.334 848.301 153.871 849.144 167.158 847.055C185.512 844.169 203.718 835.439 201.332 824.898L189.924 774.495ZM39.792 728.199C47.8199 729.461 55.4685 725.805 62.9279 722.285C70.1193 718.879 76.9443 715.636 83.9223 716.637L80.0125 740.541L51.0999 745.088L39.792 728.199ZM45.5611 751.257L50.4153 750.494L82.9774 745.373L87.8316 744.61C90.2764 744.225 92.6958 745.836 93.232 748.205C93.7682 750.574 92.2192 752.809 89.7743 753.193L87.4358 753.561C87.4358 753.561 87.4358 753.561 87.4004 753.567L49.7714 759.484C49.7714 759.484 49.7714 759.484 49.736 759.49L47.5038 759.841C45.059 760.225 42.6396 758.614 42.1034 756.245C41.5672 753.876 43.1162 751.642 45.5611 751.257ZM158.362 808.188C139.76 811.113 124.514 807.466 123.333 802.247L121.491 794.11C129.669 797.979 143.271 798.578 155.743 796.617C168.215 794.656 180.62 789.967 186.545 783.88L188.386 792.017C189.567 797.236 176.964 805.263 158.362 808.188ZM192.202 808.875C193.383 814.094 180.779 822.121 162.177 825.046C143.575 827.971 128.329 824.324 127.148 819.105L125.314 811.002C133.492 814.872 147.094 815.471 159.566 813.51C172.038 811.548 184.451 806.894 190.368 800.772L192.202 808.875ZM184.61 775.33C185.791 780.549 173.187 788.576 154.585 791.501C135.983 794.426 120.737 790.779 119.556 785.56C118.375 780.341 130.979 772.315 149.581 769.389C168.182 766.464 183.428 770.111 184.61 775.33ZM196.025 825.768C197.206 830.987 184.602 839.014 166.001 841.939C150.871 844.318 137.989 842.361 133.065 838.762C133.014 838.699 133.006 838.665 132.955 838.602C132.904 838.539 132.826 838.516 132.747 838.492C131.801 837.717 131.174 836.891 130.979 836.032L129.145 827.929C137.323 831.799 150.925 832.398 163.397 830.437C175.869 828.475 188.282 823.821 194.199 817.699L196.025 825.768Z" fill="#5A3C95" fill-opacity="0.29"/>
<path d="M31.5811 842.249C32.9761 841.781 33.6713 840.324 33.106 838.959C32.5407 837.593 30.9451 836.851 29.5501 837.319C28.1551 837.786 27.5031 839.272 28.0683 840.637C28.0761 840.672 28.0761 840.672 28.0838 840.706C28.6026 841.866 29.8569 842.555 31.1647 842.35C31.3061 842.327 31.4475 842.305 31.5811 842.249Z" fill="#5A3C95" fill-opacity="0.29"/>
<path d="M594.311 374.572C590.143 375.301 587.394 379.026 588.183 382.876C588.972 386.725 593.005 389.265 597.173 388.536C601.341 387.807 604.09 384.082 603.301 380.232C602.512 376.383 598.479 373.843 594.311 374.572ZM596.219 383.881C594.828 384.125 593.485 383.279 593.222 381.995C592.959 380.71 593.874 379.47 595.265 379.227C596.656 378.983 597.998 379.829 598.262 381.113C598.525 382.398 597.61 383.638 596.219 383.881Z" fill="#5A3C95" fill-opacity="0.2"/>
<path d="M447.56 351.073C443.392 351.802 440.642 355.527 441.431 359.377C442.22 363.226 446.254 365.766 450.421 365.037C454.589 364.309 457.339 360.583 456.55 356.733C455.761 352.884 451.727 350.344 447.56 351.073ZM449.467 360.382C448.077 360.626 446.734 359.78 446.471 358.496C446.207 357.211 447.123 355.971 448.513 355.728C449.904 355.485 451.247 356.33 451.51 357.615C451.774 358.899 450.858 360.139 449.467 360.382Z" fill="#5A3C95" fill-opacity="0.2"/>
<path d="M654.231 760.647L644.215 711.772C642.9 705.356 636.178 701.124 629.231 702.338L596.219 708.11C593.961 703.011 588.052 699.895 581.967 700.959L581.211 697.268L583.715 693.874C587.466 696.029 591.882 696.815 596.248 696.051C600.865 695.244 604.864 692.826 607.511 689.239L608.955 687.282L596.543 679.467L601.533 672.705C602.608 672.967 603.751 673.042 604.915 672.839C609.082 672.11 611.832 668.385 611.043 664.535C610.254 660.686 606.221 658.146 602.053 658.875C597.885 659.603 595.136 663.329 595.925 667.178C596.145 668.254 596.638 669.209 597.296 670.037L592.305 676.799L579.893 668.983L578.449 670.94C575.801 674.525 574.825 678.847 575.699 683.111C576.294 686.015 577.715 688.641 579.776 690.802L575.776 696.222L576.928 701.84C570.845 702.903 566.576 707.799 566.491 713.308L536.491 718.553C532.162 719.31 528.601 722.02 526.966 725.799L516.998 748.872L510.089 752.436C505.26 754.922 502.708 759.965 503.736 764.981L508.084 786.199C505.305 786.685 503.473 789.168 503.999 791.735L505.907 801.045C506.433 803.612 509.121 805.304 511.9 804.818L523.705 802.754C527.669 807.753 534.508 810.509 541.525 809.282C548.543 808.055 553.816 803.182 555.53 797.19L619.456 786.013C623.42 791.012 630.259 793.768 637.277 792.541C644.294 791.314 649.567 786.441 651.281 780.449L658.047 779.266C660.826 778.78 662.658 776.297 662.132 773.73L660.224 764.421C659.698 761.854 657.01 760.161 654.231 760.647ZM603.007 663.529C604.398 663.286 605.741 664.134 606.004 665.416C606.266 666.699 605.352 667.941 603.961 668.184C602.57 668.427 601.227 667.58 600.964 666.297C600.701 665.015 601.616 663.773 603.007 663.529ZM581.458 675.701L601.614 688.392C599.883 689.931 597.708 690.974 595.294 691.396C592.024 691.968 588.709 691.33 585.96 689.598C583.212 687.868 581.357 685.248 580.739 682.23C580.282 680.002 580.538 677.749 581.458 675.701ZM577.881 706.495L582.921 705.614C586.202 705.04 589.374 706.508 590.971 709.028L571.742 712.39C572.229 709.505 574.601 707.068 577.881 706.495ZM510.071 758.668C512.021 759.687 513.445 761.412 513.871 763.491C514.492 766.521 512.902 769.451 510.174 770.926L508.775 764.1C508.377 762.154 508.886 760.208 510.071 758.668ZM511.168 775.774C516.689 773.687 520.062 768.228 518.91 762.61C518.338 759.817 516.702 757.376 514.391 755.639L521.089 752.19L531.732 727.555C532.713 725.286 534.849 723.659 537.444 723.205L630.184 706.991C634.352 706.262 638.386 708.802 639.174 712.651L649.191 761.526L644.151 762.407L634.612 715.862C634.086 713.295 631.398 711.602 628.619 712.088L578.224 720.899L588.717 772.102L583.677 772.983L573.184 721.781L539.306 727.704C537.557 728.01 536.125 729.108 535.48 730.639L526.944 750.87L532.366 777.325C528.685 778.49 525.612 780.69 523.483 783.507L513.124 785.318L511.168 775.774ZM619.234 766.766L593.756 771.221L584.217 724.673L629.573 716.743L638.485 760.23C635.983 759.621 633.305 759.484 630.599 759.957C625.806 760.795 621.827 763.335 619.234 766.766ZM548.121 779.199C545.024 777.296 541.293 776.285 537.406 776.444L532.598 752.984L545.197 750.781L550.236 749.9L557.796 748.579L558.273 750.906C559.061 754.756 563.095 757.295 567.263 756.567L574.822 755.245L578.638 773.864L548.121 779.199ZM562.835 747.698L572.914 745.935L573.868 750.59L566.309 751.912C564.918 752.155 563.575 751.31 563.312 750.025L562.835 747.698ZM571.96 741.281L549.282 745.246L548.805 742.918C548.016 739.069 543.983 736.529 539.815 737.258L538.064 737.564L540.26 732.359L569.098 727.316L571.96 741.281ZM535.868 742.769L540.769 741.913C542.16 741.669 543.502 742.515 543.766 743.799L544.243 746.127L533.672 747.975L535.868 742.769ZM510.946 800.164L509.038 790.854L520.843 788.79C520.184 791.102 520.036 793.574 520.548 796.074C520.71 796.865 520.952 797.623 521.227 798.366L510.946 800.164ZM540.571 804.627C533.624 805.842 526.903 801.609 525.588 795.193C524.273 788.776 528.855 782.568 535.802 781.353C542.749 780.139 549.47 784.371 550.785 790.787C552.1 797.204 547.518 803.412 540.571 804.627ZM556.1 792.269C556.062 791.485 555.987 790.698 555.825 789.906C555.313 787.407 554.196 785.155 552.668 783.226L616.595 772.049C615.936 774.36 615.787 776.833 616.299 779.333C616.462 780.124 616.703 780.882 616.978 781.625L556.1 792.269ZM636.323 787.886C629.376 789.101 622.654 784.868 621.339 778.452C620.024 772.035 624.606 765.827 631.553 764.612C638.5 763.398 645.222 767.63 646.537 774.046C647.852 780.463 643.27 786.671 636.323 787.886ZM657.093 774.611L651.852 775.528C651.814 774.744 651.738 773.957 651.576 773.165C651.064 770.666 649.947 768.414 648.419 766.485L655.185 765.302L657.093 774.611Z" fill="#5A3C95" fill-opacity="0.2"/>
<path d="M569.653 330.668C559.929 332.368 553.513 341.062 555.353 350.043C557.194 359.025 566.607 364.951 576.33 363.251C586.054 361.551 592.471 352.857 590.63 343.875C588.789 334.894 579.377 328.968 569.653 330.668ZM575.376 358.596C568.429 359.811 561.708 355.579 560.393 349.162C559.078 342.746 563.66 336.537 570.607 335.322C577.554 334.108 584.275 338.34 585.59 344.757C586.905 351.173 582.323 357.382 575.376 358.596Z" fill="#5A3C95" fill-opacity="0.2"/>
<path d="M532.541 366.086L527.501 366.967L528.455 371.621L533.494 370.74L532.541 366.086Z" fill="#5A3C95" fill-opacity="0.2"/>
<path d="M376.063 679.272L308.884 690.797L309.796 695.169L376.976 683.644L376.063 679.272Z" stroke="#5A3C95" stroke-opacity="0.29" stroke-width="2" stroke-linejoin="round"/>
<path d="M373.886 679.98L361.397 621.695L335.108 626.082L347.597 684.366" stroke="#5A3C95" stroke-opacity="0.29" stroke-width="2" stroke-linejoin="round"/>
<path d="M347.084 628.579L340.44 629.682L341.793 635.966L348.437 634.862L347.084 628.579Z" stroke="#5A3C95" stroke-opacity="0.29" stroke-width="2" stroke-linejoin="round"/>
<path d="M358.291 626.62L351.647 627.723L353 634.006L359.644 632.903L358.291 626.62Z" stroke="#5A3C95" stroke-opacity="0.29" stroke-width="2" stroke-linejoin="round"/>
<path d="M349.206 638.931L342.561 640.034L343.914 646.317L350.558 645.214L349.206 638.931Z" stroke="#5A3C95" stroke-opacity="0.29" stroke-width="2" stroke-linejoin="round"/>
<path d="M360.413 636.971L353.768 638.074L355.121 644.358L361.766 643.254L360.413 636.971Z" stroke="#5A3C95" stroke-opacity="0.29" stroke-width="2" stroke-linejoin="round"/>
<path d="M351.327 649.282L344.683 650.385L346.035 656.669L352.68 655.565L351.327 649.282Z" stroke="#5A3C95" stroke-opacity="0.29" stroke-width="2" stroke-linejoin="round"/>
<path d="M362.534 647.323L355.89 648.426L357.243 654.709L363.887 653.606L362.534 647.323Z" stroke="#5A3C95" stroke-opacity="0.29" stroke-width="2" stroke-linejoin="round"/>
<path d="M325.278 658.125L318.634 659.229L319.987 665.512L326.631 664.409L325.278 658.125Z" stroke="#5A3C95" stroke-opacity="0.29" stroke-width="2" stroke-linejoin="round"/>
<path d="M336.486 656.166L329.841 657.269L331.194 663.553L337.838 662.449L336.486 656.166Z" stroke="#5A3C95" stroke-opacity="0.29" stroke-width="2" stroke-linejoin="round"/>
<path d="M327.4 668.477L320.755 669.58L322.108 675.863L328.753 674.76L327.4 668.477Z" stroke="#5A3C95" stroke-opacity="0.29" stroke-width="2" stroke-linejoin="round"/>
<path d="M338.607 666.517L331.963 667.621L333.315 673.904L339.96 672.801L338.607 666.517Z" stroke="#5A3C95" stroke-opacity="0.29" stroke-width="2" stroke-linejoin="round"/>
<path d="M353.449 659.634L346.804 660.737L348.157 667.02L354.801 665.917L353.449 659.634Z" stroke="#5A3C95" stroke-opacity="0.29" stroke-width="2" stroke-linejoin="round"/>
<path d="M364.656 657.674L358.011 658.777L359.364 665.061L366.009 663.957L364.656 657.674Z" stroke="#5A3C95" stroke-opacity="0.29" stroke-width="2" stroke-linejoin="round"/>
<path d="M344.443 671.945L371.34 667.242" stroke="#5A3C95" stroke-opacity="0.29" stroke-width="2" stroke-linejoin="round"/>
<path d="M356.061 682.799L355.159 678.61C354.92 677.499 355.157 676.356 355.819 675.433C356.48 674.509 357.512 673.881 358.687 673.686C359.862 673.49 361.083 673.745 362.083 674.392C363.083 675.04 363.779 676.028 364.018 677.139L364.92 681.328" stroke="#5A3C95" stroke-opacity="0.29" stroke-width="2" stroke-linejoin="round"/>
<path d="M329.163 687.501L328.261 683.313C328.022 682.202 328.26 681.059 328.921 680.135C329.583 679.212 330.614 678.583 331.789 678.388C332.964 678.193 334.186 678.447 335.186 679.095C336.186 679.743 336.882 680.731 337.121 681.842L338.023 686.03" stroke="#5A3C95" stroke-opacity="0.29" stroke-width="2" stroke-linejoin="round"/>
<path d="M313.242 655.65L320.091 689.069" stroke="#5A3C95" stroke-opacity="0.29" stroke-width="2" stroke-linejoin="round"/>
<path d="M338.928 645.03L325.478 647.382" stroke="#5A3C95" stroke-opacity="0.29" stroke-width="2" stroke-linejoin="round"/>
<path d="M315.621 639.457C315.444 638.628 314.926 637.891 314.182 637.408C313.439 636.925 312.531 636.735 311.657 636.881C310.783 637.026 310.016 637.495 309.524 638.184C309.032 638.873 308.856 639.726 309.034 640.554C309.212 641.383 309.729 642.12 310.473 642.603C311.216 643.086 312.125 643.276 312.998 643.131C313.872 642.985 314.78 643.175 315.524 643.658C316.267 644.141 316.785 644.878 316.963 645.707C317.14 646.536 316.964 647.388 316.472 648.077C315.98 648.766 315.213 649.235 314.339 649.381C313.466 649.526 312.557 649.336 311.814 648.853C311.07 648.37 310.553 647.633 310.375 646.804" stroke="#5A3C95" stroke-opacity="0.29" stroke-width="2" stroke-linejoin="round"/>
<path d="M311.725 636.92L311.089 633.814" stroke="#5A3C95" stroke-opacity="0.29" stroke-width="2" stroke-linejoin="round"/>
<path d="M314.271 649.341L314.907 652.447" stroke="#5A3C95" stroke-opacity="0.29" stroke-width="2" stroke-linejoin="round"/>
<path d="M315.704 655.697C323.043 654.478 327.781 647.864 326.287 640.924C324.793 633.984 317.632 629.345 310.293 630.564C302.953 631.783 298.215 638.397 299.709 645.337C301.203 652.277 308.364 656.916 315.704 655.697Z" stroke="#5A3C95" stroke-opacity="0.29" stroke-width="2" stroke-linejoin="round"/>
<path d="M339.775 649.171L322.556 652.182" stroke="#5A3C95" stroke-opacity="0.29" stroke-width="2" stroke-linejoin="round"/>
</svg>
