<svg version="1.2" xmlns="http://www.w3.org/2000/svg" viewBox="0 0 97 30" width="97" height="30">
	<title>logo-svg</title>
	<style>
		.s0 { fill: #ffffff } 
	</style>
	<path id="Layer" class="s0" d="m23.7 0.6v28.4h-5.9l-11.4-19.1v19.1h-5.9v-28.4h5.9l11.4 19v-19zm14.5 28.8q-2.4 0-4.4-0.8-2-0.8-3.3-2.2-1.4-1.4-2.1-3.3-0.7-1.8-0.7-3.9v-0.8q0-2.4 0.7-4.4 0.7-2 1.9-3.5 1.3-1.4 3.2-2.2 1.8-0.8 4.1-0.8 2.2 0 4 0.7 1.7 0.8 2.9 2.1 1.2 1.4 1.8 3.3 0.6 1.9 0.6 4.2v2.4h-16.8v-3.8h11.3v-0.4q0-1.2-0.5-2.1-0.4-0.9-1.2-1.5-0.9-0.5-2.2-0.5-1.1 0-1.9 0.5-0.8 0.4-1.3 1.3-0.5 0.9-0.7 2.1-0.3 1.2-0.3 2.6v0.8q0 1.2 0.4 2.3 0.4 1.1 1 1.9 0.7 0.7 1.7 1.2 0.9 0.4 2.2 0.4 1.5 0 2.8-0.6 1.3-0.6 2.3-1.8l2.7 3q-0.6 0.9-1.8 1.8-1.1 0.9-2.7 1.4-1.6 0.6-3.7 0.6zm17.9-5.9l4.4-15.6h3.6l-1.2 6.1-4.4 15h-2.9zm-2.3-15.7l3.2 15.7 0.3 5.5h-3.5l-5.4-21.2zm14.2 15.4l3.1-15.4h5.4l-5.3 21.2h-3.5zm-3.5-15.4l4.3 15.5 0.6 5.6h-3l-4.4-14.9-1.1-6.2zm26.3 15.3q0-0.6-0.3-1.1-0.4-0.5-1.3-0.9-1-0.5-2.7-0.8-1.6-0.4-3-0.9-1.4-0.5-2.4-1.3-1-0.8-1.6-1.8-0.5-1-0.5-2.4 0-1.3 0.5-2.5 0.6-1.2 1.7-2.1 1.1-0.9 2.6-1.4 1.6-0.5 3.6-0.5 2.7 0 4.7 0.9 2 0.8 3.1 2.4 1 1.5 1 3.5h-5.6q0-0.9-0.3-1.5-0.4-0.7-1.1-1-0.7-0.4-1.8-0.4-1 0-1.6 0.3-0.7 0.3-1.1 0.9-0.4 0.5-0.4 1.1 0 0.5 0.2 0.9 0.3 0.4 0.7 0.7 0.5 0.3 1.2 0.6 0.8 0.2 1.9 0.5 2.3 0.4 4.1 1.2 1.8 0.7 2.8 2 1.1 1.3 1.1 3.4 0 1.4-0.6 2.5-0.7 1.2-1.8 2.1-1.2 0.8-2.8 1.3-1.7 0.5-3.7 0.5-2.9 0-5-1.1-2-1-3.1-2.6-1-1.7-1-3.4h5.3q0.1 1.2 0.6 1.9 0.6 0.7 1.4 1 0.9 0.3 1.9 0.3 1.1 0 1.8-0.3 0.8-0.3 1.1-0.8 0.4-0.5 0.4-1.2z"/>
</svg>