<svg width="53" height="50" viewBox="0 0 53 50" fill="none" xmlns="http://www.w3.org/2000/svg">
<path d="M12.213 0.815918H40.787C47.4696 0.815918 53 6.5758 53 13.5357V23.8554C53 30.8153 47.4696 36.5752 40.787 36.5752H28.4587L16.4761 49.0549C16.3609 49.0549 15.3239 50.3749 13.9413 49.8949C13.0196 49.6549 12.4435 48.8149 12.4435 47.855V36.5752C5.53043 36.5752 0 31.0553 0 23.8554V13.5357C0 6.5758 5.53043 0.815918 12.213 0.815918ZM11.637 27.2154C10.9457 27.2154 10.4848 26.7354 10.4848 26.0154C10.4848 25.2954 10.9457 24.8154 11.637 24.8154H28.113C28.8043 24.8154 29.2652 25.2954 29.2652 26.0154C29.2652 26.7354 28.8043 27.2154 28.113 27.2154H11.637ZM11.637 20.3755C10.9457 20.3755 10.4848 19.7755 10.4848 19.1755C10.4848 18.4556 10.9457 17.9756 11.637 17.9756H41.363C42.0543 17.9756 42.5152 18.4556 42.5152 19.1755C42.5152 19.7755 42.0543 20.3755 41.363 20.3755H11.637ZM11.637 13.4157C10.9457 13.4157 10.4848 12.9357 10.4848 12.2157C10.4848 11.4957 10.9457 11.0157 11.637 11.0157H35.487C36.063 11.0157 36.6391 11.4957 36.6391 12.2157C36.6391 12.9357 36.063 13.4157 35.487 13.4157H11.637ZM40.787 4.17585H12.213C7.2587 4.17585 3.22609 8.37576 3.22609 13.5357V23.8554C3.22609 29.0153 7.2587 33.2153 12.213 33.2153H12.7891C14.287 33.2153 15.6696 34.6552 15.6696 36.2152V45.095L27.0761 33.2153H40.787C45.7413 33.2153 49.7739 29.0153 49.7739 23.8554V13.5357C49.7739 8.37576 45.7413 4.17585 40.787 4.17585Z" fill="#D74FC7"/>
</svg>
