<svg width="53" height="51" viewBox="0 0 53 51" fill="none" xmlns="http://www.w3.org/2000/svg">
<path d="M9.44798 28.576C10.4608 28.4685 11.2005 27.502 11.1002 26.4171C10.9999 25.3322 10.0976 24.5398 9.08481 24.6472C8.07201 24.7546 7.33228 25.7212 7.43256 26.8061C7.53285 27.891 8.43518 28.6834 9.44798 28.576Z" fill="#D74FC7"/>
<path d="M10.9677 33.0571C11.3572 32.0499 10.9106 30.8952 9.97037 30.478C9.03009 30.0608 7.95211 30.5391 7.56263 31.5463C7.17315 32.5535 7.61967 33.7082 8.55995 34.1254C9.50023 34.5426 10.5782 34.0643 10.9677 33.0571Z" fill="#D74FC7"/>
<path d="M9.97242 39.8163C10.9127 39.3991 11.3592 38.2443 10.9697 37.2371C10.5803 36.2299 9.50224 35.7516 8.56194 36.1688C7.62164 36.586 7.17512 37.7407 7.56462 38.748C7.95411 39.7552 9.03212 40.2335 9.97242 39.8163Z" fill="#D74FC7"/>
<path d="M17.985 26.9277C18.148 25.8516 17.4658 24.8377 16.4612 24.663C15.4565 24.4884 14.51 25.2192 14.3469 26.2953C14.1839 27.3715 14.8662 28.3854 15.8708 28.5601C16.8754 28.7347 17.822 28.0039 17.985 26.9277Z" fill="#D74FC7"/>
<path d="M16.4611 34.2502C17.4657 34.0755 18.148 33.0616 17.985 31.9855C17.8219 30.9094 16.8754 30.1786 15.8708 30.3532C14.8662 30.5278 14.1839 31.5418 14.3469 32.6179C14.51 33.694 15.4565 34.4248 16.4611 34.2502Z" fill="#D74FC7"/>
<path d="M16.8708 39.8156C17.8111 39.3984 18.2576 38.2437 17.8681 37.2365C17.4786 36.2292 16.4006 35.7509 15.4604 36.1681C14.5201 36.5853 14.0735 37.7401 14.463 38.7473C14.8525 39.7545 15.9305 40.2328 16.8708 39.8156Z" fill="#D74FC7"/>
<path d="M26.7914 12.5107C27.6572 11.9376 27.9253 10.7211 27.3903 9.79368C26.8552 8.86624 25.7196 8.57901 24.8538 9.15214C23.988 9.72526 23.7199 10.9417 24.2549 11.8691C24.7899 12.7966 25.9255 13.0838 26.7914 12.5107Z" fill="#D74FC7"/>
<path d="M33.1579 20.1846C34.1707 20.0772 34.9105 19.1106 34.8102 18.0257C34.7099 16.9408 33.8076 16.1484 32.7948 16.2558C31.782 16.3633 31.0422 17.3298 31.1425 18.4147C31.2428 19.4996 32.1451 20.292 33.1579 20.1846Z" fill="#D74FC7"/>
<path d="M49.7706 45.4594L45.5598 32.1159C46.6438 31.28 47.4584 30.1038 47.891 28.7502C48.3236 27.3966 48.3527 25.9324 47.9743 24.5603C47.5959 23.1882 46.8288 21.976 45.779 21.0914C44.7292 20.2069 43.4487 19.6937 42.1147 19.6229V5.0308C42.1135 3.93657 41.7072 2.88752 40.9848 2.1138C40.2625 1.34007 39.2832 0.904857 38.2616 0.903625H20.5359C19.5145 0.904873 18.5351 1.3401 17.8128 2.11382C17.0905 2.88755 16.6842 3.93658 16.683 5.0308V18.6807H3.85291C2.8314 18.682 1.85207 19.1172 1.12976 19.891C0.407452 20.6647 0.00115325 21.7137 0 22.808V41.7954C0.00114931 42.8897 0.407447 43.9387 1.12976 44.7125C1.85207 45.4862 2.8314 45.9214 3.85291 45.9227H21.5786C22.6001 45.9214 23.5795 45.4862 24.3018 44.7125C25.0241 43.9387 25.4304 42.8897 25.4316 41.7954V28.1455H35.5356C35.902 29.7436 36.7859 31.1506 38.03 32.1159L33.8192 45.4594C32.9388 45.5409 32.1188 45.9729 31.521 46.67C30.9232 47.3672 30.591 48.279 30.5898 49.2257V49.7295C30.5898 49.9407 30.6681 50.1433 30.8076 50.2927C30.947 50.4421 31.1362 50.526 31.3334 50.526H52.2564C52.4536 50.526 52.6428 50.4421 52.7822 50.2927C52.9217 50.1433 53 49.9407 53 49.7295V49.2257C52.9988 48.279 52.6666 47.3672 52.0688 46.67C51.471 45.9729 50.651 45.5409 49.7706 45.4594ZM23.0522 41.7955C23.0517 42.214 22.8963 42.6152 22.6201 42.9111C22.3438 43.207 21.9693 43.3735 21.5786 43.374H3.85291C3.46224 43.3735 3.08772 43.207 2.81148 42.9111C2.53525 42.6152 2.37987 42.214 2.37942 41.7955V22.808C2.37987 22.3895 2.53525 21.9883 2.81149 21.6924C3.08772 21.3965 3.46225 21.23 3.85291 21.2295H21.5786C21.9693 21.23 22.3438 21.3965 22.6201 21.6924C22.8963 21.9883 23.0517 22.3895 23.0522 22.808V41.7955ZM21.5786 18.6808H19.0624V5.0308C19.0629 4.61233 19.2183 4.21116 19.4945 3.91526C19.7708 3.61937 20.1453 3.45291 20.5359 3.45242H38.2616C38.6523 3.45288 39.0269 3.61931 39.3031 3.91521C39.5794 4.21111 39.7348 4.61231 39.7353 5.0308V19.9779C38.5981 20.3912 37.5909 21.136 36.827 22.1285C36.063 23.1211 35.5725 24.3221 35.4104 25.5967H25.4316V22.808C25.4304 21.7137 25.0241 20.6647 24.3018 19.8909C23.5795 19.1172 22.6001 18.682 21.5786 18.6808Z" fill="#D74FC7"/>
</svg>
