<svg width="54" height="54" viewBox="0 0 54 54" fill="none" xmlns="http://www.w3.org/2000/svg">
<path d="M27.3281 53.3812C41.9459 53.3812 53.8281 41.4989 53.8281 26.8812C53.8281 12.2634 41.9459 0.381165 27.3281 0.381165C12.7104 0.381165 0.828125 12.2634 0.828125 26.8812C0.828125 41.4989 12.7104 53.3812 27.3281 53.3812ZM6.812 37.4384L17.583 37.3529C18.7797 41.6699 20.7886 45.8586 23.5241 49.6199C16.2152 48.4231 10.1031 43.7642 6.812 37.4384ZM20.3184 19.615H33.7394C34.7225 24.3166 34.7225 29.1465 33.8249 33.8481L20.3184 33.9336C19.3354 29.1892 19.3354 24.3166 20.3184 19.615ZM27.0289 48.6368C24.3362 45.1747 22.3701 41.3707 21.1733 37.3529L32.9273 37.2675C31.6878 41.2852 29.7217 45.132 27.0289 48.6368ZM30.4483 49.7481C33.2693 45.9013 35.2781 41.6699 36.4749 37.2247L47.9725 37.1392C44.6386 43.8497 38.1418 48.6796 30.4483 49.7481ZM50.4088 26.8812C50.4088 29.2747 50.0241 31.5828 49.383 33.7199L37.287 33.8054C38.1418 29.1037 38.0991 24.3166 37.2015 19.615H49.212C49.9813 21.8804 50.4088 24.3594 50.4088 26.8812ZM47.7588 16.1957H36.3894C35.1499 11.9215 33.1838 7.77552 30.4483 4.01423C38.0136 5.04004 44.3822 9.69891 47.7588 16.1957ZM32.8418 16.1957H21.216C22.4555 12.2634 24.3789 8.54487 27.0289 5.12552C29.6789 8.54487 31.6023 12.2634 32.8418 16.1957ZM23.5241 4.14246C20.8314 7.861 18.8652 11.9215 17.6684 16.1957H6.89748C10.1886 9.91262 16.258 5.33923 23.5241 4.14246ZM16.8564 19.615C15.9588 24.3594 15.9588 29.1892 16.8136 33.9336L5.40151 34.0191C4.63216 31.7537 4.24748 29.3602 4.24748 26.8812C4.24748 24.3594 4.6749 21.8804 5.44425 19.615H16.8564Z" fill="#D74FC7"/>
</svg>
