<svg width="18" height="18" viewBox="0 0 18 18" fill="none" xmlns="http://www.w3.org/2000/svg">
<g opacity="0.4">
<path d="M15.9936 1.64949C14.1142 -0.231795 11.0671 -0.231795 9.18772 1.64949L6.75704 4.0826C6.48856 4.35136 6.48856 4.78709 6.75704 5.05585C7.02553 5.3246 7.46083 5.3246 7.72932 5.05585L10.16 2.62273C11.5024 1.27896 13.6789 1.27896 15.0214 2.62273C16.3638 3.96651 16.3638 6.14519 15.0214 7.48896L12.5907 9.92208C12.3222 10.1908 12.3222 10.6266 12.5907 10.8953C12.8592 11.1641 13.2945 11.1641 13.5629 10.8953L15.9936 8.46221C17.873 6.58093 17.873 3.53077 15.9936 1.64949Z" fill="black"/>
<path d="M4.8125 7.97559C5.08099 7.70683 5.08099 7.27109 4.8125 7.00234C4.54401 6.73359 4.10871 6.73359 3.84023 7.00234L1.40955 9.43545C-0.46985 11.3167 -0.469849 14.3669 1.40955 16.2482C3.28895 18.1295 6.33605 18.1295 8.21545 16.2482L10.6461 13.8151C10.9146 13.5463 10.9146 13.1106 10.6461 12.8418C10.3776 12.5731 9.94234 12.5731 9.67386 12.8418L7.24318 15.2749C5.90075 16.6187 3.72425 16.6187 2.38182 15.2749C1.03939 13.9312 1.03939 11.7525 2.38182 10.4087L4.8125 7.97559Z" fill="black"/>
<path d="M11.6184 7.00234C11.8869 6.73358 11.8869 6.29785 11.6184 6.02909C11.3499 5.76034 10.9146 5.76034 10.6461 6.02909L5.78476 10.8953C5.51627 11.1641 5.51627 11.5998 5.78476 11.8686C6.05325 12.1373 6.48855 12.1373 6.75703 11.8686L11.6184 7.00234Z" fill="black"/>
</g>
</svg>
