<svg width="21" height="18" viewBox="0 0 21 18" fill="none" xmlns="http://www.w3.org/2000/svg">
<path fill-rule="evenodd" clip-rule="evenodd" d="M20.0781 8.67036C20.0781 9.02357 19.8678 9.34279 19.5435 9.48193L2.07939 16.974C1.76012 17.111 1.39028 17.0477 1.13467 16.8122C0.879058 16.5768 0.785279 16.2131 0.895121 15.8833L3.29701 8.67037L0.895121 1.45747C0.785279 1.12762 0.879058 0.76394 1.13467 0.528508C1.39028 0.293077 1.76012 0.22973 2.07939 0.366696L19.5435 7.8588C19.8678 7.99794 20.0781 8.31716 20.0781 8.67036ZM4.86255 9.55332L3.18988 14.5764L16.9568 8.67036L3.18987 2.76434L4.86255 7.78741L7.9691 7.78741C8.45625 7.78741 8.85117 8.18272 8.85117 8.67037C8.85117 9.15801 8.45625 9.55332 7.9691 9.55332H4.86255Z" fill="#E3A400"/>
</svg>
