<svg width="48" height="37" viewBox="0 0 48 37" fill="none" xmlns="http://www.w3.org/2000/svg">
<path d="M41.4545 0.870605H6.54545C2.93073 0.870605 0 3.56138 0 6.88015V30.9183C0 34.2371 2.93073 36.9279 6.54545 36.9279H41.4545C45.0693 36.9279 48 34.2371 48 30.9183V6.88015C48 3.56138 45.0693 0.870605 41.4545 0.870605ZM41.4545 4.87697C41.7065 4.87697 41.9487 4.91603 42.1735 4.98865L24 18.3374L5.82655 4.98865C6.05127 4.91603 6.29345 4.87697 6.54545 4.87697H41.4545ZM41.4545 32.9215H6.54545C5.34055 32.9215 4.36364 32.0246 4.36364 30.9183V9.04459L22.6369 22.4664C23.0351 22.7594 23.5173 22.9056 24 22.9056C24.4827 22.9056 24.9649 22.7594 25.3631 22.4664L43.6364 9.04459V30.9183C43.6364 32.0246 42.6595 32.9215 41.4545 32.9215Z" fill="#D74FC7"/>
</svg>
