<svg width="35" height="37" viewBox="0 0 35 37" fill="none" xmlns="http://www.w3.org/2000/svg">
<path d="M34.845 29.6191L34.6708 29.0783C34.2581 27.8148 32.9057 26.497 31.6632 26.1498L27.0646 24.8557C25.8175 24.5061 24.0386 24.9761 23.1262 25.916L21.4619 27.6306C15.4135 25.9468 10.6705 21.0605 9.03835 14.8305L10.7027 13.1159C11.6151 12.1759 12.0713 10.3457 11.732 9.06096L10.478 4.32113C10.1388 3.03874 8.8573 1.64542 7.6332 1.22501L7.10826 1.04318C5.88182 0.622771 4.13271 1.04794 3.22037 1.98784L0.730803 4.55495C0.286043 5.01073 0.00178638 6.31435 0.00178638 6.31912C-0.0852877 14.462 3.01402 22.3074 8.6051 28.0674C14.1825 33.8133 21.7692 37.0015 29.6504 36.933C29.6916 36.933 30.9937 36.6449 31.4385 36.189L33.928 33.6242C34.8404 32.6844 35.253 30.8826 34.845 29.6191Z" fill="#D74FC7"/>
</svg>
