<svg width="40" height="42" viewBox="0 0 40 42" fill="none" xmlns="http://www.w3.org/2000/svg">
<rect width="40" height="42" fill="#1E1E1E"/>
<g id="MacBook Pro 16&#34; - 18" clip-path="url(#clip0_0_1)">
<rect width="1728" height="2509" transform="translate(-508 -598)" fill="white"/>
<g id="Group">
<g id="Group_2">
<path id="Vector" d="M10.4186 42C7.61182 42 4.98478 40.8092 3.08782 38.9123C-0.587822 35.2366 -1.61251 28.8195 3.54082 23.6662C6.56023 20.6468 18.655 8.55288 24.6925 2.51405C26.8358 0.370744 29.5641 -0.456692 32.1757 0.243085C34.7409 0.930053 36.8432 3.03152 37.5302 5.59623C38.2299 8.20961 37.4025 10.937 35.2596 13.0803L15.0318 33.3085C13.8769 34.4634 12.5726 35.147 11.261 35.2857C9.96263 35.4224 8.72275 35.0044 7.85518 34.1372C6.28143 32.5639 6.05728 29.6025 8.67323 26.9879L22.8814 12.7789C23.465 12.1952 24.4107 12.1952 24.9944 12.7789C25.578 13.3625 25.578 14.3086 24.9944 14.8919L10.7866 29.1004C9.5583 30.3284 9.44559 31.5008 9.96861 32.0238C10.1979 32.2531 10.5458 32.3564 10.9468 32.3133C11.562 32.2484 12.2626 31.8509 12.9189 31.1947L33.1466 10.9673C34.5342 9.57971 35.0662 7.94703 34.6435 6.37072C34.2273 4.81789 32.9558 3.54642 31.403 3.13014C29.8271 2.70746 28.194 3.23944 26.8055 4.62747C20.7684 10.665 8.67323 22.7606 5.65381 25.7792C1.71303 29.72 2.6566 34.2542 5.20081 36.7984C7.74503 39.3426 12.2789 40.2871 16.2209 36.3459L37.3726 15.1937C37.9563 14.6101 38.902 14.6101 39.4856 15.1937C40.0693 15.7774 40.0693 16.7235 39.4856 17.3067L18.3339 38.4593C15.8409 40.9531 13.0504 42 10.4186 42Z" fill="#D74FC7"/>
</g>
</g>
</g>
<defs>
<clipPath id="clip0_0_1">
<rect width="1728" height="2509" fill="white" transform="translate(-508 -598)"/>
</clipPath>
</defs>
</svg>
