<svg width="1203" height="606" viewBox="0 0 1203 606" fill="none" xmlns="http://www.w3.org/2000/svg">
<path d="M1185.63 205.167C1185.1 205.793 1183.62 206.313 1182.87 206.067C1181.94 205.772 1180.91 204.754 1180.64 203.865C1179.7 200.693 1179.25 197.399 1178.26 194.241C1172.26 175.165 1159.94 160.404 1141.4 150.07C1125.82 141.385 1108.79 137.996 1090.56 139.412C1088.53 139.566 1086.5 139.873 1085.27 140.021C1082.87 140.44 1081.27 140.707 1079.67 141C1077.57 141.387 1076.07 140.72 1075.64 139.174C1075.23 137.685 1076.22 136.225 1078.32 135.898C1083.2 135.134 1088.08 134.266 1093 133.984C1109.37 133.042 1124.91 135.972 1139.38 142.946C1159.97 152.874 1174.38 167.827 1182.1 187.915C1183.9 192.601 1184.91 197.548 1186.14 202.408C1186.35 203.272 1186.2 204.516 1185.63 205.167ZM1099.6 194.115C1105.11 189.099 1110.73 188.244 1115.84 191.416C1119.81 193.885 1122.75 199.536 1118.62 206.323C1119.24 206.498 1120.04 206.56 1120.62 206.909C1125.32 209.768 1130 212.666 1134.67 215.586C1138.88 218.221 1140.51 222.985 1138.76 227.195C1137.99 229.039 1136.67 230.091 1134.53 230.659C1122.65 233.828 1111.27 238.079 1101.42 245.111C1097.69 247.775 1094.45 251.015 1091.02 254.03C1090.43 254.551 1090.03 255.247 1089.46 255.959C1093.58 259.21 1097.62 262.394 1101.66 265.579C1106.94 269.73 1112.22 273.881 1117.5 278.04C1120.31 280.254 1120.84 283.325 1118.79 286.154C1116.32 289.554 1113.79 292.918 1111.21 296.256C1109.01 299.111 1104.87 300.192 1100.82 299.062C1098.46 298.405 1096.36 297.284 1094.96 295.423C1094.03 294.197 1092.92 293.336 1091.46 292.749C1091.3 292.682 1091.14 292.604 1091.01 292.492C1087.85 289.726 1084.69 286.954 1081.54 284.18C1081.2 283.882 1080.98 283.376 1080.58 283.236C1077.51 282.145 1075.25 280.163 1073.15 277.434C1072.46 278.47 1071.96 279.338 1071.34 280.128C1067.28 285.213 1060.11 286.545 1054.32 283.197C1050.86 281.21 1047.48 279.096 1044.17 276.914C1038.58 273.215 1037.28 266.542 1041.16 261.267C1046.11 254.533 1051.06 247.799 1056.21 241.203C1064.44 230.67 1068.21 218.826 1068.87 206.123C1069.16 200.655 1068.79 195.16 1068.59 189.683C1068.48 186.82 1070.24 184.4 1073.63 183.221C1077.4 181.909 1080.93 182.227 1084.27 184.335C1088.88 187.232 1093.53 190.074 1098.14 192.955C1098.69 193.297 1099.14 193.75 1099.6 194.115ZM1112.37 195.705C1109.87 194.189 1106.73 194.719 1105.05 196.789C1108.07 198.691 1111.1 200.598 1114.13 202.492C1115.64 200.052 1114.96 197.272 1112.37 195.705ZM1079.17 275.81C1080.27 276.882 1081.88 277.517 1083.22 278.407C1084.11 278.992 1085.16 279.528 1085.71 280.327C1086.68 281.739 1087.89 282.698 1089.55 283.398C1090.48 283.794 1091.17 284.689 1091.92 285.407C1092.97 286.415 1093.77 287.891 1095.04 288.395C1096.97 289.169 1098.21 290.176 1099.29 291.832C1101.33 294.961 1105.23 294.912 1107.45 291.952C1109.46 289.272 1111.43 286.566 1113.51 283.928C1114.27 282.959 1114.21 282.385 1113.19 281.62C1109.69 278.947 1106.26 276.195 1102.81 273.48C1097.31 269.151 1091.82 264.822 1086.16 260.379C1083.62 263.757 1081.24 266.934 1078.86 270.116C1077.11 272.441 1077.06 273.743 1079.17 275.81ZM1080.9 188.667C1079.41 187.737 1077.86 187.449 1076.12 188.016C1074.89 188.42 1074.44 189.023 1074.49 190.347C1074.71 195.444 1074.96 200.556 1074.72 205.645C1074.05 220.375 1069.42 233.912 1059.68 245.934C1054.94 251.777 1050.63 257.909 1046.16 263.933C1043.75 267.182 1044.45 270.66 1047.93 272.852C1051.05 274.818 1054.12 276.851 1057.36 278.619C1058.77 279.391 1060.55 279.577 1062.16 280.03C1062.2 279.867 1062.25 279.704 1062.3 279.541C1064.55 279.301 1065.96 278.018 1067.17 276.408C1072.61 269.122 1078.17 261.911 1083.5 254.551C1088.28 247.946 1094.54 242.78 1101.65 238.4C1111 232.653 1121.3 228.774 1132.02 225.794C1133.29 225.445 1133.61 224.831 1133.63 223.797C1133.66 221.806 1132.43 220.581 1130.75 219.542C1121.74 213.977 1112.75 208.38 1103.74 202.807C1096.13 198.093 1088.51 193.395 1080.9 188.667ZM1097.11 165.473C1093.23 165.566 1089.35 166.359 1085.48 166.921C1083.52 167.209 1082.14 166.765 1081.58 165.402C1080.91 163.769 1081.75 162.223 1083.9 161.859C1088.04 161.169 1092.23 160.33 1096.41 160.231C1115.02 159.77 1130.67 165.885 1143.14 178.412C1151.27 186.594 1155.95 196.336 1157.65 207.28C1157.95 209.213 1157.03 210.559 1155.34 210.814C1153.57 211.09 1152.3 210.046 1151.91 208.007C1151.74 207.089 1151.54 206.168 1151.35 205.252C1146.39 181.606 1123.59 164.834 1097.11 165.473Z" fill="#5A3C95" fill-opacity="0.29"/>
<path d="M714.273 70.1019C713.758 70.266 713.376 70.7765 713.596 71.3536L720.658 89.8225C720.835 90.2842 721.397 90.6228 722.041 90.4177C722.685 90.2125 722.938 89.7431 722.718 89.166L715.656 70.6971C715.435 70.1199 714.788 69.9378 714.273 70.1019Z" fill="#5A3C95" fill-opacity="0.29"/>
<path d="M723.007 93.1438C722.481 93.309 722.09 93.8228 722.316 94.4039L723.218 96.7282C723.398 97.193 723.974 97.534 724.632 97.3275C725.29 97.121 725.549 96.6484 725.324 96.0674L724.421 93.7431C724.196 93.162 723.534 92.9786 723.007 93.1438Z" fill="#5A3C95" fill-opacity="0.29"/>
<path d="M803.574 109.801C803.056 109.966 802.671 110.477 802.893 111.054L806.889 121.456C807.067 121.919 807.633 122.258 808.28 122.052C808.928 121.847 809.183 121.377 808.961 120.799L804.965 110.397C804.743 109.819 804.092 109.637 803.574 109.801Z" fill="#5A3C95" fill-opacity="0.29"/>
<path d="M801.418 104.044C800.889 104.21 800.496 104.725 800.723 105.308L801.176 106.473C801.357 106.939 801.935 107.281 802.596 107.074C803.258 106.867 803.518 106.393 803.292 105.81L802.838 104.645C802.612 104.062 801.947 103.878 801.418 104.044Z" fill="#5A3C95" fill-opacity="0.29"/>
<path d="M790.804 48.0446L789.075 48.5858L788.482 47.0628C788.299 46.5942 787.718 46.2505 787.052 46.4586C786.387 46.6668 786.125 47.1431 786.353 47.7289L786.946 49.2519L785.216 49.793C784.683 49.9596 784.288 50.4775 784.516 51.0633C784.744 51.6491 785.28 51.8756 785.946 51.6675L787.675 51.1263L788.268 52.6493C788.451 53.1179 789.032 53.4616 789.698 53.2535C790.363 53.0453 790.625 52.569 790.397 51.9832L789.759 50.3431L791.489 49.8019C792.021 49.6354 792.416 49.1174 792.188 48.5316C791.96 47.9459 791.337 47.8781 790.804 48.0446Z" fill="#5A3C95" fill-opacity="0.29"/>
<path d="M789.383 101.455C788.847 101.623 788.449 102.145 788.679 102.736L792.855 113.487L746.808 127.93L744.376 121.668C744.192 121.195 743.607 120.849 742.938 121.059C742.268 121.269 742.004 121.749 742.234 122.34L747.281 135.336C748.475 138.408 752.295 140.125 755.909 138.992L793.389 127.236C796.87 126.144 798.851 122.74 797.612 119.55L790.821 102.064C790.637 101.591 789.918 101.287 789.383 101.455ZM792.701 125.464L755.221 137.22C752.811 137.975 750.115 136.833 749.289 134.706L747.316 129.626L793.497 115.141L795.47 120.221C796.43 122.306 795.111 124.708 792.701 125.464Z" fill="#5A3C95" fill-opacity="0.29"/>
<path d="M741.774 116.481C742.305 116.314 742.7 115.797 742.472 115.212L728.262 78.714L774.102 64.3728L775.605 68.2332C775.788 68.7012 776.368 69.0444 777.033 68.8365C777.697 68.6287 777.959 68.153 777.731 67.5681L773.632 57.0398C772.448 53.9983 768.656 52.2976 765.068 53.42L727.864 65.0592C724.409 66.14 722.443 69.5111 723.673 72.6696L740.525 115.953C740.662 116.304 741.242 116.647 741.774 116.481ZM728.414 66.8555L765.618 55.2163C768.01 54.468 770.686 55.5992 771.506 57.7049L773.465 62.7351L727.624 77.0763L725.62 71.9291C724.8 69.8234 726.023 67.6037 728.414 66.8555Z" fill="#5A3C95" fill-opacity="0.29"/>
<path d="M741.518 69.7703L757.695 64.6188C758.234 64.4471 758.635 63.9131 758.404 63.3092C758.172 62.7054 757.629 62.4719 756.955 62.6865L740.778 67.838C740.239 68.0097 739.838 68.5437 740.07 69.1476C740.301 69.7514 740.979 69.942 741.518 69.7703Z" fill="#5A3C95" fill-opacity="0.29"/>
<path d="M774.548 125.639L769.442 127.25C768.904 127.42 768.505 127.947 768.735 128.543C768.966 129.139 769.507 129.37 770.179 129.158L775.285 127.548C775.823 127.378 776.222 126.851 775.992 126.254C775.761 125.658 775.086 125.47 774.548 125.639Z" fill="#5A3C95" fill-opacity="0.29"/>
<path d="M794.081 66.1555L751.441 79.4984C750.908 79.6652 750.512 80.184 750.74 80.7707L763.53 113.626C763.667 113.978 764.07 114.247 764.516 114.239C764.649 114.197 764.828 114.273 764.961 114.231C765.228 114.148 765.449 113.947 765.536 113.788L770.615 104.564L804.861 93.848C805.394 93.6812 805.79 93.1624 805.562 92.5757L795.513 66.7606C795.284 66.1739 794.614 65.9887 794.081 66.1555ZM803.198 92.2624L769.485 102.812C769.218 102.895 768.998 103.096 768.91 103.255L764.794 110.73L753.192 80.9249L793.834 68.2075L803.198 92.2624Z" fill="#5A3C95" fill-opacity="0.29"/>
<path d="M770.226 96.5112L770.146 92.8614L774.398 91.5312L776.869 94.4327L779.394 93.6428L770.633 83.3913L767.444 84.389L767.701 97.3011L770.226 96.5112ZM769.744 88.0002C769.736 87.2151 769.55 86.3546 769.543 85.5696C769.949 86.2299 770.534 86.9657 771.073 87.5845L773.229 90.0596L769.907 91.0989L769.744 88.0002Z" fill="#5A3C95" fill-opacity="0.29"/>
<path d="M784.59 92.1498C785.914 91.7353 786.879 90.7792 787.045 89.6803L787.677 90.9218L789.795 90.2587C789.568 89.6756 789.073 88.784 788.755 87.9675L784.943 78.1705L782.56 78.9165L784.42 83.6984C783.796 83.2396 782.688 83.0632 781.364 83.4776C779.113 84.1822 777.763 86.4367 778.852 89.2358C779.805 91.6851 782.339 92.8543 784.59 92.1498ZM782.616 84.7866C783.675 84.455 784.742 84.9061 785.324 85.6397C785.37 85.7563 785.461 85.9896 785.551 86.2228L786.005 87.3891C786.096 87.6224 786.187 87.8557 786.1 88.0137C786.198 89.0297 785.63 89.8615 784.571 90.1931C783.115 90.649 781.734 89.7728 781.144 88.2566C780.687 86.6989 781.027 85.2839 782.616 84.7866Z" fill="#5A3C95" fill-opacity="0.29"/>
<path d="M766.642 86.6474L766.638 86.2561C765.662 86.0383 765.042 85.9708 764.687 85.8204C764.509 85.7452 764.286 85.5534 764.24 85.4368C764.149 85.2036 764.236 85.0455 764.41 84.7294C764.585 84.4132 764.626 84.1385 764.713 83.9805C764.8 83.8224 764.755 83.7058 764.664 83.4725C764.528 83.1226 764.305 82.9308 763.949 82.7805C763.594 82.6301 763.283 82.5963 762.886 82.7207C762.489 82.845 762.27 83.0445 762.096 83.3607C761.922 83.6768 761.926 84.0681 762.062 84.418C762.289 85.0011 762.78 85.5014 763.537 85.9187C764.426 86.2946 765.401 86.5125 766.642 86.6474Z" fill="#5A3C95" fill-opacity="0.29"/>
<path d="M762.453 87.9985L762.449 87.6072C761.473 87.3894 760.853 87.3219 760.498 87.1715C760.32 87.0963 760.097 86.9045 760.051 86.7879C759.961 86.5547 760.048 86.3966 760.222 86.0805C760.396 85.7643 760.437 85.4896 760.524 85.3316C760.611 85.1735 760.566 85.0569 760.475 84.8236C760.339 84.4737 760.116 84.2819 759.76 84.1316C759.405 83.9812 759.095 83.9475 758.697 84.0718C758.3 84.1961 758.081 84.3956 757.907 84.7118C757.733 85.0279 757.737 85.4192 757.873 85.7691C758.1 86.3522 758.591 86.8525 759.348 87.2698C760.237 87.6457 761.212 87.8636 762.453 87.9985Z" fill="#5A3C95" fill-opacity="0.29"/>
<path d="M791.5 92.0327L791.769 92.3411C792.691 91.6598 793.304 90.9447 793.607 90.1959C793.909 89.4471 793.947 88.7812 793.72 88.1981C793.584 87.8483 793.316 87.5399 792.96 87.3895C792.605 87.2392 792.295 87.2055 791.898 87.3298C791.5 87.4541 791.281 87.6536 791.107 87.9697C790.933 88.2858 790.892 88.5604 791.028 88.9102C791.118 89.1435 791.164 89.2601 791.341 89.3353C791.519 89.4104 791.742 89.6022 792.098 89.7526C792.453 89.9029 792.676 90.0947 792.722 90.2113C792.767 90.3279 792.725 90.6026 792.638 90.7606C792.552 90.9187 792.158 91.4342 791.5 92.0327Z" fill="#5A3C95" fill-opacity="0.29"/>
<path d="M795.689 90.6816L795.958 90.99C796.88 90.3087 797.493 89.5936 797.796 88.8448C798.098 88.096 798.136 87.4301 797.909 86.847C797.773 86.4972 797.505 86.1888 797.149 86.0384C796.794 85.8881 796.484 85.8543 796.086 85.9787C795.689 86.103 795.47 86.3025 795.296 86.6186C795.122 86.9346 795.08 87.2093 795.217 87.5591C795.307 87.7924 795.353 87.909 795.53 87.9841C795.708 88.0593 795.931 88.2511 796.287 88.4015C796.642 88.5518 796.865 88.7436 796.911 88.8602C796.956 88.9768 796.914 89.2515 796.827 89.4095C796.74 89.5676 796.347 90.0831 795.689 90.6816Z" fill="#5A3C95" fill-opacity="0.29"/>
<path d="M741.461 119.796C741.64 119.872 741.773 119.83 741.952 119.906C742.085 119.864 742.264 119.94 742.397 119.898C742.664 119.815 742.885 119.614 742.972 119.455C743.06 119.296 743.102 119.02 743.01 118.785C742.965 118.668 742.919 118.55 742.873 118.433C742.828 118.316 742.47 118.164 742.337 118.206C741.8 117.979 741.134 118.188 740.871 118.665C740.784 118.824 740.829 118.941 740.696 118.983C740.563 119.024 740.654 119.259 740.7 119.376C740.745 119.494 740.791 119.611 740.97 119.687C741.149 119.762 741.328 119.838 741.461 119.796Z" fill="#5A3C95" fill-opacity="0.29"/>
<path d="M67.3109 548.677L67.0164 547.366C70.2689 545.935 72.1583 542.476 71.3351 538.809C70.3557 534.447 65.9475 531.488 61.4834 532.196C59.2925 532.544 57.1218 531.086 56.6411 528.945C56.1604 526.804 57.55 524.783 59.7409 524.435C61.9319 524.087 64.1026 525.544 64.5833 527.685C64.8296 528.783 65.9651 529.545 67.0879 529.367C68.2108 529.189 68.9377 528.131 68.6913 527.034C67.8741 523.394 64.6148 520.752 60.9598 520.389L60.6653 519.078C60.419 517.98 59.2835 517.218 58.1607 517.396C57.0378 517.575 56.3109 518.632 56.5573 519.729L56.8517 521.041C53.5993 522.471 51.7099 525.931 52.5331 529.597C53.5125 533.959 57.9207 536.919 62.3847 536.21C64.5757 535.863 66.7464 537.32 67.2271 539.461C67.7078 541.602 66.3182 543.624 64.1272 543.971C61.9363 544.319 59.7656 542.862 59.2849 540.721C59.0385 539.624 57.9031 538.861 56.7802 539.04C55.6574 539.218 54.9305 540.275 55.1769 541.373C55.994 545.012 59.2534 547.655 62.9084 548.017L63.2028 549.329C63.4492 550.426 64.5846 551.188 65.7075 551.01C66.8304 550.832 67.5572 549.774 67.3109 548.677Z" fill="#5A3C95" fill-opacity="0.29"/>
<path d="M87.1073 530.271C84.0626 516.82 70.3091 507.687 56.4546 509.865C42.6001 512.044 33.7904 524.753 36.8289 538.177C39.8735 551.629 53.6332 560.789 67.4877 558.611C81.3422 556.432 90.1458 543.696 87.1073 530.271ZM40.9908 537.523C38.4546 526.318 45.8095 515.743 57.3456 513.929C68.8817 512.115 80.3594 519.756 82.8895 530.935C85.4257 542.14 78.0769 552.741 66.5408 554.555C55.0047 556.369 43.5209 548.701 40.9908 537.523Z" fill="#5A3C95" fill-opacity="0.29"/>
<path d="M149.715 508.431C147.836 500.128 131.417 498.046 116.913 500.327C107.309 501.837 97.7891 505.385 92.9806 510.019C87.2906 503.327 81.043 498.016 74.6319 494.416C76.9657 492.812 78.1805 489.98 77.5111 487.023C76.5777 482.898 72.3784 480.103 68.1224 480.772L67.3664 480.891L70.5381 461.594C70.709 460.556 70.0092 459.514 68.9248 459.207C61.1292 456.92 54.0885 460.275 47.3032 463.478C39.9169 466.972 33.5551 469.995 26.9645 466.114C26.0611 465.582 24.9848 465.695 24.2895 466.338C23.5941 466.981 23.5134 468.034 24.08 468.872L35.4683 485.879L34.7123 485.998C30.4563 486.667 27.7676 490.546 28.701 494.67C29.3704 497.628 31.7676 499.892 34.6138 500.681C29.6643 506.742 25.7538 514.831 23.4138 523.965C20.7839 534.382 20.385 545.431 22.359 554.281L22.4142 554.525C22.666 555.638 23.7988 556.415 24.9468 556.234L24.9748 556.23C26.1166 556.022 26.866 554.977 26.6081 553.838C26.5617 553.761 26.5494 553.706 26.5309 553.625C23.0238 538.385 27.8835 512.838 40.5196 500.511L68.9676 496.037C76.2658 499.329 83.8886 505.464 90.4272 513.343C89.7639 514.768 89.5512 516.262 89.9012 517.809C89.9012 517.809 92.898 531.05 92.9041 531.077C92.9103 531.104 92.9103 531.104 92.9164 531.131L95.9009 544.318C95.907 544.345 95.9316 544.453 95.9316 544.453L98.9161 557.64C99.1371 558.617 99.5638 559.477 100.152 560.283C93.8372 565.435 82.3864 567.882 71.8024 569.546L70.2064 569.797C51.2785 572.774 37.3158 572.834 30.6729 563.342C29.9977 562.408 28.5992 562.123 27.6614 562.72C26.6957 563.321 26.4899 564.59 27.1713 565.55C31.4335 571.315 37.6466 574.552 46.1459 575.464C54.1945 576.305 63.6516 575.043 71.8836 573.748C84.3654 571.757 96.1207 569.375 103.465 563.134C109.736 566.756 121.225 567.422 131.725 565.771C146.229 563.49 160.615 556.592 158.73 548.262L149.715 508.431ZM31.0744 471.846C37.4184 472.844 43.4627 469.954 49.3574 467.173C55.0404 464.481 60.4338 461.919 65.9481 462.709L62.8584 481.6L40.0104 485.193L31.0744 471.846ZM35.6334 490.068L39.4694 489.465L65.2014 485.418L69.0374 484.815C70.9693 484.511 72.8812 485.784 73.305 487.656C73.7287 489.528 72.5046 491.294 70.5726 491.598L68.7246 491.889C68.7246 491.889 68.7246 491.889 68.6966 491.893L38.9606 496.569C38.9606 496.569 38.9606 496.569 38.9326 496.574L37.1686 496.851C35.2366 497.155 33.3247 495.882 32.901 494.01C32.4773 492.138 33.7014 490.372 35.6334 490.068ZM124.773 535.057C110.073 537.368 98.0253 534.486 97.0918 530.362L95.6364 523.932C102.099 526.99 112.848 527.463 122.704 525.913C132.56 524.363 142.363 520.658 147.044 515.847L148.5 522.278C149.433 526.402 139.473 532.745 124.773 535.057ZM151.515 535.6C152.448 539.724 142.488 546.067 127.788 548.379C113.088 550.691 101.04 547.809 100.107 543.684L98.6578 537.281C105.12 540.339 115.869 540.812 125.725 539.262C135.581 537.712 145.39 534.034 150.066 529.197L151.515 535.6ZM145.515 509.091C146.449 513.216 136.489 519.559 121.789 521.87C107.089 524.182 95.0408 521.3 94.1074 517.176C93.174 513.051 103.134 506.708 117.834 504.397C132.534 502.085 144.582 504.967 145.515 509.091ZM154.536 548.949C155.47 553.074 145.51 559.417 130.81 561.728C118.854 563.608 108.674 562.062 104.783 559.218C104.742 559.168 104.736 559.141 104.696 559.091C104.656 559.041 104.593 559.023 104.531 559.005C103.784 558.392 103.288 557.739 103.134 557.061L101.685 550.657C108.148 553.715 118.896 554.189 128.752 552.639C138.608 551.089 148.418 547.411 153.093 542.573L154.536 548.949Z" fill="#5A3C95" fill-opacity="0.29"/>
<path d="M24.5861 561.973C25.6885 561.604 26.2378 560.452 25.7911 559.373C25.3444 558.294 24.0834 557.708 22.9811 558.077C21.8787 558.447 21.3634 559.621 21.8101 560.7C21.8163 560.727 21.8163 560.727 21.8224 560.754C22.2323 561.671 23.2235 562.215 24.257 562.053C24.3687 562.035 24.4805 562.018 24.5861 561.973Z" fill="#5A3C95" fill-opacity="0.29"/>
<path d="M510.077 520.265L442.897 531.79L443.809 536.163L510.989 524.638L510.077 520.265Z" stroke="#5A3C95" stroke-opacity="0.29" stroke-width="2" stroke-linejoin="round"/>
<path d="M507.899 520.973L495.41 462.689L469.121 467.076L481.61 525.36" stroke="#5A3C95" stroke-opacity="0.29" stroke-width="2" stroke-linejoin="round"/>
<path d="M481.097 469.573L474.453 470.676L475.805 476.959L482.45 475.856L481.097 469.573Z" stroke="#5A3C95" stroke-opacity="0.29" stroke-width="2" stroke-linejoin="round"/>
<path d="M492.305 467.613L485.66 468.717L487.013 475L493.657 473.897L492.305 467.613Z" stroke="#5A3C95" stroke-opacity="0.29" stroke-width="2" stroke-linejoin="round"/>
<path d="M483.219 479.924L476.574 481.028L477.927 487.311L484.571 486.208L483.219 479.924Z" stroke="#5A3C95" stroke-opacity="0.29" stroke-width="2" stroke-linejoin="round"/>
<path d="M494.426 477.965L487.781 479.068L489.134 485.351L495.778 484.248L494.426 477.965Z" stroke="#5A3C95" stroke-opacity="0.29" stroke-width="2" stroke-linejoin="round"/>
<path d="M485.34 490.276L478.696 491.379L480.048 497.662L486.693 496.559L485.34 490.276Z" stroke="#5A3C95" stroke-opacity="0.29" stroke-width="2" stroke-linejoin="round"/>
<path d="M496.547 488.316L489.903 489.42L491.256 495.703L497.9 494.6L496.547 488.316Z" stroke="#5A3C95" stroke-opacity="0.29" stroke-width="2" stroke-linejoin="round"/>
<path d="M459.291 499.119L452.647 500.222L454 506.506L460.644 505.402L459.291 499.119Z" stroke="#5A3C95" stroke-opacity="0.29" stroke-width="2" stroke-linejoin="round"/>
<path d="M470.499 497.16L463.854 498.263L465.207 504.546L471.851 503.443L470.499 497.16Z" stroke="#5A3C95" stroke-opacity="0.29" stroke-width="2" stroke-linejoin="round"/>
<path d="M461.413 509.471L454.768 510.574L456.121 516.857L462.765 515.754L461.413 509.471Z" stroke="#5A3C95" stroke-opacity="0.29" stroke-width="2" stroke-linejoin="round"/>
<path d="M472.62 507.511L465.976 508.614L467.328 514.898L473.973 513.794L472.62 507.511Z" stroke="#5A3C95" stroke-opacity="0.29" stroke-width="2" stroke-linejoin="round"/>
<path d="M487.461 500.627L480.817 501.731L482.17 508.014L488.814 506.911L487.461 500.627Z" stroke="#5A3C95" stroke-opacity="0.29" stroke-width="2" stroke-linejoin="round"/>
<path d="M498.669 498.668L492.024 499.771L493.377 506.054L500.022 504.951L498.669 498.668Z" stroke="#5A3C95" stroke-opacity="0.29" stroke-width="2" stroke-linejoin="round"/>
<path d="M478.456 512.938L505.353 508.236" stroke="#5A3C95" stroke-opacity="0.29" stroke-width="2" stroke-linejoin="round"/>
<path d="M490.074 523.792L489.172 519.604C488.933 518.493 489.17 517.35 489.832 516.426C490.493 515.503 491.525 514.874 492.7 514.679C493.875 514.484 495.096 514.738 496.096 515.386C497.096 516.034 497.792 517.022 498.031 518.133L498.933 522.321" stroke="#5A3C95" stroke-opacity="0.29" stroke-width="2" stroke-linejoin="round"/>
<path d="M463.176 528.495L462.274 524.306C462.035 523.195 462.273 522.052 462.934 521.129C463.596 520.205 464.627 519.577 465.802 519.382C466.977 519.187 468.199 519.441 469.199 520.089C470.198 520.736 470.895 521.724 471.134 522.835L472.035 527.024" stroke="#5A3C95" stroke-opacity="0.29" stroke-width="2" stroke-linejoin="round"/>
<path d="M447.255 496.644L454.104 530.063" stroke="#5A3C95" stroke-opacity="0.29" stroke-width="2" stroke-linejoin="round"/>
<path d="M472.941 486.024L459.491 488.376" stroke="#5A3C95" stroke-opacity="0.29" stroke-width="2" stroke-linejoin="round"/>
<path d="M449.634 480.45C449.456 479.622 448.939 478.885 448.195 478.401C447.452 477.918 446.543 477.729 445.67 477.874C444.796 478.02 444.029 478.489 443.537 479.178C443.045 479.867 442.869 480.719 443.047 481.548C443.224 482.377 443.742 483.114 444.486 483.597C445.229 484.08 446.137 484.27 447.011 484.124C447.885 483.979 448.793 484.168 449.537 484.651C450.28 485.135 450.798 485.872 450.975 486.7C451.153 487.529 450.977 488.382 450.485 489.071C449.993 489.76 449.226 490.229 448.352 490.374C447.479 490.52 446.57 490.33 445.827 489.847C445.083 489.364 444.566 488.627 444.388 487.798" stroke="#5A3C95" stroke-opacity="0.29" stroke-width="2" stroke-linejoin="round"/>
<path d="M445.738 477.913L445.102 474.808" stroke="#5A3C95" stroke-opacity="0.29" stroke-width="2" stroke-linejoin="round"/>
<path d="M448.284 490.335L448.921 493.441" stroke="#5A3C95" stroke-opacity="0.29" stroke-width="2" stroke-linejoin="round"/>
<path d="M449.716 496.691C457.056 495.472 461.794 488.858 460.3 481.918C458.806 474.977 451.645 470.339 444.306 471.558C436.966 472.776 432.228 479.39 433.722 486.331C435.216 493.271 442.377 497.909 449.716 496.691Z" stroke="#5A3C95" stroke-opacity="0.29" stroke-width="2" stroke-linejoin="round"/>
<path d="M473.788 490.165L456.568 493.176" stroke="#5A3C95" stroke-opacity="0.29" stroke-width="2" stroke-linejoin="round"/>
<path d="M103.434 80.9486C103.016 81.0092 102.272 80.7136 102.065 80.3654C101.805 79.9379 101.751 79.1983 101.947 78.7643C102.649 77.2192 103.587 75.7963 104.269 74.2428C108.382 64.8547 108.603 55.0038 104.927 44.7633C101.839 36.1582 96.4051 29.1085 88.891 23.5121C88.0525 22.885 87.166 22.3202 86.6426 21.9635C85.5748 21.3167 84.8653 20.8789 84.149 20.453C83.2081 19.895 82.8553 19.133 83.209 18.3897C83.5507 17.675 84.4268 17.4467 85.3495 18.0295C87.4884 19.3767 89.6681 20.6891 91.6627 22.2389C98.2983 27.3906 103.311 33.7605 106.547 41.3307C111.152 52.1059 111.678 62.7387 107.884 73.0955C107 75.5119 105.721 77.761 104.558 80.0521C104.349 80.4579 103.873 80.8887 103.434 80.9486ZM73.9389 47.6789C77.7588 47.6008 80.2174 49.1655 81.1207 52.1124C81.8215 54.4043 81.0524 57.5779 77.1711 58.8067C77.3488 59.0812 77.6377 59.3754 77.7452 59.7067C78.5965 62.3957 79.4268 65.0918 80.2426 67.7911C80.9826 70.2298 80.005 72.6175 77.9085 73.6521C76.9896 74.1047 76.1256 74.0661 75.1097 73.566C69.4522 70.7827 63.6254 68.5883 57.4539 67.985C55.1155 67.7565 52.7699 67.9131 50.4314 67.923C50.026 67.9238 49.6377 68.0581 49.1774 68.1408C49.674 70.7857 50.1592 73.3761 50.6445 75.9666C51.2838 79.3496 51.9263 82.7345 52.5608 86.1186C52.9014 87.9221 52.0696 89.2856 50.3238 89.6863C48.2248 90.1671 46.1123 90.6119 43.9926 91.0324C42.1809 91.3932 40.2171 90.4143 39.0354 88.6138C38.344 87.5633 37.9136 86.4245 37.9986 85.2324C38.0549 84.448 37.913 83.7383 37.5509 83.0223C37.5116 82.9428 37.4724 82.8556 37.462 82.7698C37.1735 80.6362 36.8866 78.4997 36.606 76.3671C36.5755 76.138 36.661 75.868 36.556 75.6812C35.7368 74.2235 35.5339 72.6981 35.6423 70.9361C35.0281 71.1044 34.5416 71.2706 34.0331 71.3639C30.7515 71.9587 27.5374 70.0595 26.4284 66.8131C25.7641 64.8811 25.1691 62.9235 24.6284 60.967C23.7143 57.652 25.4638 54.6392 28.741 53.9106C32.9192 52.9768 37.1006 52.045 41.3137 51.2356C48.044 49.9446 53.4899 46.6399 58.0282 41.959C59.9805 39.9431 61.6916 37.6978 63.4601 35.515C64.3848 34.3745 65.8784 34.0317 67.585 34.7198C69.4844 35.4848 70.74 36.7976 71.3194 38.7379C72.1217 41.4091 72.9577 44.0729 73.7696 46.7419C73.8648 47.0579 73.8862 47.3847 73.9389 47.6789ZM78.3352 52.5985C77.8823 51.172 76.4898 50.3166 75.1428 50.5496C75.6683 52.3022 76.1952 54.0597 76.7255 55.8112C78.1337 55.3809 78.8059 54.0756 78.3352 52.5985ZM38.5139 72.3377C38.5788 73.124 38.9852 73.9105 39.2015 74.705C39.3469 75.2302 39.5727 75.792 39.5162 76.2863C39.4144 77.1583 39.5592 77.9374 39.9629 78.7659C40.1881 79.2321 40.1549 79.8119 40.2012 80.3406C40.2657 81.0829 40.0769 81.9221 40.3984 82.5459C40.8818 83.4943 41.0227 84.3028 40.8807 85.3054C40.6154 87.2028 42.138 88.4986 43.9937 88.1048C45.6728 87.7472 47.3447 87.3653 49.0355 87.0466C49.6579 86.9309 49.8257 86.6869 49.693 86.0502C49.2421 83.8382 48.8458 81.6195 48.4285 79.408C47.7643 75.8828 47.1001 72.3575 46.4145 68.7359C44.2956 69.1848 42.305 69.608 40.3128 70.0343C38.8552 70.3433 38.3952 70.8276 38.5139 72.3377ZM68.5566 39.2734C68.2942 38.4113 67.7927 37.7777 66.9296 37.4099C66.3174 37.1503 65.9417 37.2327 65.5156 37.7612C63.8818 39.8031 62.2555 41.8615 60.4488 43.747C55.2238 49.2079 48.8728 52.8742 41.0585 54.2318C37.2597 54.8908 33.5273 55.8046 29.772 56.625C27.7458 57.0664 26.8428 58.6451 27.4488 60.665C27.9887 62.474 28.4916 64.2963 29.1473 66.0722C29.4281 66.8422 30.0547 67.5158 30.5221 68.232C30.5952 68.1848 30.6683 68.1377 30.7413 68.0906C31.6921 68.7579 32.6694 68.738 33.6775 68.5222C38.2352 67.5442 42.8134 66.6341 47.3505 65.588C51.425 64.651 55.5828 64.7657 59.8059 65.4722C65.3525 66.4043 70.6346 68.376 75.7805 70.8414C76.387 71.1333 76.7177 71.0038 77.0747 70.6122C77.7576 69.8537 77.6955 68.9658 77.3961 67.9978C75.7922 62.8108 74.2075 57.6195 72.6083 52.4314C71.2588 48.046 69.8996 43.6628 68.5566 39.2734ZM82.6341 35.7816C81.1028 34.5085 79.3376 33.5068 77.6545 32.4198C76.8011 31.8711 76.4162 31.2327 76.6606 30.5185C76.952 29.662 77.7968 29.3473 78.7513 29.9334C80.5833 31.063 82.4819 32.1494 84.1301 33.5212C91.4712 39.6167 95.4539 47.2538 96.0437 56.2924C96.4281 62.1949 94.9507 67.534 91.916 72.3309C91.3807 73.1788 90.5706 73.3874 89.8332 72.9169C89.0565 72.4265 88.9194 71.5965 89.4566 70.6783C89.6992 70.2651 89.9309 69.8412 90.1673 69.4242C96.2216 58.6212 93.0748 44.4619 82.6341 35.7816Z" fill="#5A3C95" fill-opacity="0.29"/>
<path d="M855.77 565.002L848.609 530.061C847.669 525.473 842.864 522.448 837.897 523.316L814.297 527.442C812.682 523.797 808.458 521.569 804.108 522.33L803.567 519.691L805.358 517.265C808.039 518.806 811.196 519.367 814.318 518.821C817.618 518.244 820.477 516.516 822.37 513.951L823.402 512.552L814.528 506.965L818.096 502.131C818.864 502.319 819.681 502.372 820.514 502.227C823.493 501.706 825.459 499.042 824.895 496.29C824.331 493.538 821.447 491.723 818.468 492.244C815.488 492.765 813.522 495.428 814.086 498.18C814.244 498.949 814.597 499.632 815.067 500.223L811.499 505.058L802.625 499.47L801.593 500.869C799.7 503.432 799.002 506.522 799.627 509.57C800.053 511.647 801.068 513.524 802.541 515.069L799.682 518.943L800.505 522.96C796.157 523.72 793.105 527.22 793.044 531.158L771.596 534.908C768.502 535.449 765.956 537.387 764.788 540.088L757.661 556.584L752.721 559.131C749.27 560.908 747.445 564.514 748.18 568.1L751.288 583.269C749.302 583.617 747.992 585.392 748.368 587.227L749.732 593.882C750.108 595.718 752.029 596.927 754.016 596.58L762.456 595.105C765.289 598.678 770.179 600.648 775.196 599.771C780.213 598.894 783.983 595.41 785.208 591.127L830.909 583.136C833.743 586.71 838.632 588.68 843.649 587.803C848.666 586.926 852.436 583.442 853.661 579.158L858.498 578.313C860.485 577.965 861.795 576.19 861.419 574.355L860.055 567.7C859.679 565.864 857.757 564.654 855.77 565.002ZM819.15 495.571C820.144 495.397 821.104 496.003 821.292 496.92C821.48 497.837 820.826 498.725 819.832 498.899C818.837 499.073 817.877 498.467 817.689 497.55C817.501 496.633 818.155 495.745 819.15 495.571ZM803.744 504.273L818.153 513.346C816.916 514.446 815.362 515.192 813.636 515.494C811.298 515.902 808.928 515.446 806.963 514.208C804.998 512.971 803.672 511.098 803.23 508.94C802.904 507.348 803.087 505.737 803.744 504.273ZM801.187 526.288L804.79 525.658C807.135 525.248 809.403 526.297 810.545 528.098L796.798 530.502C797.146 528.44 798.842 526.698 801.187 526.288ZM752.709 563.587C754.103 564.315 755.121 565.549 755.425 567.035C755.869 569.201 754.733 571.295 752.783 572.35L751.782 567.47C751.497 566.079 751.862 564.688 752.709 563.587ZM753.493 575.816C757.44 574.324 759.851 570.421 759.028 566.405C758.619 564.408 757.45 562.663 755.797 561.422L760.586 558.956L768.195 541.344C768.896 539.722 770.423 538.559 772.278 538.234L838.579 526.642C841.558 526.121 844.442 527.937 845.006 530.689L852.167 565.63L848.564 566.26L841.745 532.984C841.369 531.149 839.447 529.939 837.46 530.287L801.432 536.586L808.934 573.191L805.331 573.821L797.829 537.216L773.609 541.45C772.359 541.669 771.335 542.454 770.874 543.548L764.772 558.012L768.648 576.925C766.016 577.757 763.819 579.331 762.297 581.344L754.891 582.639L753.493 575.816ZM830.75 569.376L812.536 572.561L805.716 539.283L838.142 533.614L844.513 564.703C842.724 564.268 840.81 564.17 838.875 564.509C835.449 565.108 832.604 566.924 830.75 569.376ZM779.911 578.265C777.697 576.904 775.03 576.181 772.251 576.295L768.813 559.523L777.82 557.949L781.423 557.319L786.828 556.374L787.169 558.038C787.733 560.79 790.616 562.605 793.596 562.084L799 561.14L801.728 574.45L779.911 578.265ZM790.43 555.744L797.636 554.484L798.318 557.812L792.914 558.757C791.919 558.931 790.96 558.326 790.771 557.408L790.43 555.744ZM796.954 551.156L780.741 553.991L780.4 552.327C779.836 549.575 776.953 547.759 773.973 548.28L772.721 548.499L774.291 544.778L794.908 541.173L796.954 551.156ZM771.151 552.221L774.655 551.608C775.649 551.434 776.609 552.039 776.798 552.957L777.138 554.621L769.582 555.942L771.151 552.221ZM753.334 593.252L751.97 586.597L760.41 585.121C759.939 586.774 759.833 588.542 760.199 590.329C760.315 590.894 760.488 591.436 760.684 591.967L753.334 593.252ZM774.514 596.443C769.547 597.312 764.742 594.286 763.802 589.699C762.862 585.111 766.137 580.673 771.104 579.805C776.07 578.936 780.876 581.962 781.816 586.549C782.756 591.136 779.48 595.575 774.514 596.443ZM785.616 587.608C785.588 587.048 785.535 586.485 785.419 585.919C785.053 584.132 784.254 582.523 783.162 581.143L828.864 573.153C828.392 574.805 828.286 576.573 828.653 578.36C828.768 578.926 828.941 579.468 829.138 579.999L785.616 587.608ZM842.967 584.475C838.001 585.343 833.195 582.318 832.255 577.73C831.315 573.143 834.591 568.705 839.557 567.836C844.524 566.968 849.329 569.994 850.269 574.581C851.21 579.168 847.934 583.607 842.967 584.475ZM857.816 574.985L854.069 575.64C854.042 575.079 853.988 574.517 853.872 573.951C853.506 572.164 852.708 570.554 851.615 569.175L856.452 568.329L857.816 574.985Z" fill="#5A3C95" fill-opacity="0.2"/>
</svg>
