<svg width="222" height="223" viewBox="0 0 222 223" fill="none" xmlns="http://www.w3.org/2000/svg">
<path d="M148.801 69.7876C155.941 77.3041 159.723 87.5673 157.829 99.8151C155.65 113.903 146.323 122.429 136.454 127.015C129.712 130.148 122.388 131.639 115.971 132.015L115.185 137.101C114.501 141.521 110.364 144.55 105.943 143.866C101.523 143.182 98.4943 139.045 99.1781 134.625L101.035 122.62C101.688 118.396 105.512 115.407 109.769 115.792C115.03 116.269 122.938 115.435 129.628 112.326C136.094 109.321 140.696 104.622 141.822 97.3392C142.933 90.1598 140.819 84.9024 137.057 80.9423C133.065 76.7396 126.814 73.6366 119.498 72.2378C112.213 70.8445 104.594 71.2886 98.4072 73.4047C92.2193 75.521 88.1745 79.0136 86.3948 83.2721C84.6706 87.399 79.9269 89.3466 75.8 87.622C71.6735 85.8979 69.7259 81.1542 71.4501 77.0273C75.5259 67.2733 84.0229 61.2062 93.166 58.0793C102.311 54.9514 112.812 54.4688 122.54 56.329C132.237 58.1829 141.892 62.5134 148.801 69.7876Z" fill="#FBC918"/>
<path d="M95.4642 158.635C96.1479 154.215 100.285 151.186 104.705 151.87C109.125 152.553 112.155 156.691 111.471 161.111C110.787 165.531 106.649 168.56 102.23 167.876C97.8093 167.193 94.7804 163.055 95.4642 158.635Z" fill="#FBC918"/>
</svg>
