<svg width="347" height="66" viewBox="0 0 347 66" fill="none" xmlns="http://www.w3.org/2000/svg">
<g clip-path="url(#clip0_174_3654)">
<path d="M89.6374 53.8048C91.237 53.8048 92.5457 52.496 92.5457 50.8964V4.36247C92.5457 2.76287 91.237 1.4541 89.6374 1.4541H5.2946C3.695 1.4541 2.38623 2.76287 2.38623 4.36247V50.8964C2.38623 52.496 3.695 53.8048 5.2946 53.8048H89.6374Z" stroke="#FBC918" stroke-width="2"/>
<path d="M47.4661 49.4425C59.513 49.4425 69.2789 39.6765 69.2789 27.6297C69.2789 15.5828 59.513 5.81689 47.4661 5.81689C35.4192 5.81689 25.6533 15.5828 25.6533 27.6297C25.6533 39.6765 35.4192 49.4425 47.4661 49.4425Z" stroke="#FBC918" stroke-width="2"/>
<path d="M41.7947 34.028C41.7947 36.9364 44.4122 39.2631 47.6114 39.2631C50.8106 39.2631 53.4282 36.9364 53.4282 34.028C53.4282 29.8109 47.6114 27.6296 47.6114 27.6296C47.6114 27.6296 41.7947 25.4483 41.7947 21.2312C41.7947 18.3228 44.4122 15.9961 47.6114 15.9961C50.8106 15.9961 53.4282 18.3228 53.4282 21.2312" stroke="#D74FC7" stroke-width="2"/>
<path d="M47.6113 10.3247V45.0797" stroke="#D74FC7" stroke-width="2"/>
<rect x="0.478027" y="14.0879" width="15.4502" height="25.6295" rx="4" stroke="#FBC918" stroke-width="2"/>
<rect x="84.8208" y="14.0879" width="8.1793" height="25.6295" rx="4" stroke="#FBC918" stroke-width="2"/>
</g>
<circle cx="19.8364" cy="56.7129" r="8.72511" fill="#FBC918"/>
<circle cx="19.8364" cy="56.7129" r="8.72511" fill="#FBC918"/>
<circle cx="19.8364" cy="56.7129" r="8.72511" fill="#FBC918"/>
<circle cx="19.8364" cy="56.7129" r="8.72511" fill="#FBC918"/>
<circle cx="78.0037" cy="56.7129" r="8.72511" fill="#FBC918"/>
<circle cx="78.0037" cy="56.7129" r="8.72511" fill="#FBC918"/>
<circle cx="78.0037" cy="56.7129" r="8.72511" fill="#FBC918"/>
<circle cx="78.0037" cy="56.7129" r="8.72511" fill="#FBC918"/>
<path d="M119.848 39.96C121.048 39.96 122.056 39.816 122.872 39.528C123.688 39.24 124.336 38.856 124.816 38.376C125.312 37.896 125.664 37.336 125.872 36.696C126.096 36.056 126.208 35.376 126.208 34.656C126.208 33.904 126.088 33.232 125.848 32.64C125.608 32.032 125.232 31.52 124.72 31.104C124.208 30.672 123.544 30.344 122.728 30.12C121.928 29.896 120.96 29.784 119.824 29.784H113.32V39.96H119.848ZM113.32 15.288V25.32H118.456C120.664 25.32 122.328 24.92 123.448 24.12C124.584 23.32 125.152 22.048 125.152 20.304C125.152 18.496 124.64 17.208 123.616 16.44C122.592 15.672 120.992 15.288 118.816 15.288H113.32ZM118.816 10.296C121.088 10.296 123.032 10.512 124.648 10.944C126.264 11.376 127.584 11.992 128.608 12.792C129.648 13.592 130.408 14.56 130.888 15.696C131.368 16.832 131.608 18.112 131.608 19.536C131.608 20.352 131.488 21.136 131.248 21.888C131.008 22.624 130.632 23.32 130.12 23.976C129.624 24.616 128.984 25.2 128.2 25.728C127.432 26.256 126.512 26.704 125.44 27.072C130.208 28.144 132.592 30.72 132.592 34.8C132.592 36.272 132.312 37.632 131.752 38.88C131.192 40.128 130.376 41.208 129.304 42.12C128.232 43.016 126.912 43.72 125.344 44.232C123.776 44.744 121.984 45 119.968 45H106.864V10.296H118.816ZM157.226 39.792C158.474 39.792 159.586 39.584 160.562 39.168C161.554 38.752 162.386 38.168 163.058 37.416C163.73 36.664 164.242 35.752 164.594 34.68C164.962 33.608 165.146 32.408 165.146 31.08V10.296H171.602V31.08C171.602 33.144 171.266 35.056 170.594 36.816C169.938 38.56 168.986 40.072 167.738 41.352C166.506 42.616 165.002 43.608 163.226 44.328C161.45 45.032 159.45 45.384 157.226 45.384C154.986 45.384 152.978 45.032 151.202 44.328C149.426 43.608 147.914 42.616 146.666 41.352C145.434 40.072 144.482 38.56 143.81 36.816C143.154 35.056 142.826 33.144 142.826 31.08V10.296H149.282V31.056C149.282 32.384 149.458 33.584 149.81 34.656C150.178 35.728 150.698 36.648 151.37 37.416C152.058 38.168 152.89 38.752 153.866 39.168C154.858 39.584 155.978 39.792 157.226 39.792ZM202.163 16.608C201.971 16.944 201.763 17.192 201.539 17.352C201.331 17.496 201.067 17.568 200.747 17.568C200.411 17.568 200.043 17.448 199.643 17.208C199.259 16.952 198.795 16.672 198.251 16.368C197.707 16.064 197.067 15.792 196.331 15.552C195.611 15.296 194.755 15.168 193.763 15.168C192.867 15.168 192.083 15.28 191.411 15.504C190.739 15.712 190.171 16.008 189.707 16.392C189.259 16.776 188.923 17.24 188.699 17.784C188.475 18.312 188.363 18.896 188.363 19.536C188.363 20.352 188.587 21.032 189.035 21.576C189.499 22.12 190.107 22.584 190.859 22.968C191.611 23.352 192.467 23.696 193.427 24C194.387 24.304 195.371 24.632 196.379 24.984C197.387 25.32 198.371 25.72 199.331 26.184C200.291 26.632 201.147 27.208 201.899 27.912C202.651 28.6 203.251 29.448 203.699 30.456C204.163 31.464 204.395 32.688 204.395 34.128C204.395 35.696 204.123 37.168 203.579 38.544C203.051 39.904 202.267 41.096 201.227 42.12C200.203 43.128 198.947 43.928 197.459 44.52C195.971 45.096 194.267 45.384 192.347 45.384C191.243 45.384 190.155 45.272 189.083 45.048C188.011 44.84 186.979 44.536 185.987 44.136C185.011 43.736 184.091 43.256 183.227 42.696C182.363 42.136 181.595 41.512 180.923 40.824L182.819 37.728C182.979 37.504 183.187 37.32 183.443 37.176C183.699 37.016 183.971 36.936 184.259 36.936C184.659 36.936 185.091 37.104 185.555 37.44C186.019 37.76 186.571 38.12 187.211 38.52C187.851 38.92 188.595 39.288 189.443 39.624C190.307 39.944 191.339 40.104 192.539 40.104C194.379 40.104 195.803 39.672 196.811 38.808C197.819 37.928 198.323 36.672 198.323 35.04C198.323 34.128 198.091 33.384 197.627 32.808C197.179 32.232 196.579 31.752 195.827 31.368C195.075 30.968 194.219 30.632 193.259 30.36C192.299 30.088 191.323 29.792 190.331 29.472C189.339 29.152 188.363 28.768 187.403 28.32C186.443 27.872 185.587 27.288 184.835 26.568C184.083 25.848 183.475 24.952 183.011 23.88C182.563 22.792 182.339 21.456 182.339 19.872C182.339 18.608 182.587 17.376 183.083 16.176C183.595 14.976 184.331 13.912 185.291 12.984C186.251 12.056 187.435 11.312 188.843 10.752C190.251 10.192 191.867 9.912 193.691 9.912C195.739 9.912 197.627 10.232 199.355 10.872C201.083 11.512 202.555 12.408 203.771 13.56L202.163 16.608ZM213.027 41.736C213.027 41.24 213.115 40.768 213.291 40.32C213.483 39.872 213.739 39.488 214.059 39.168C214.379 38.848 214.763 38.592 215.211 38.4C215.659 38.208 216.139 38.112 216.651 38.112C217.163 38.112 217.635 38.208 218.067 38.4C218.515 38.592 218.899 38.848 219.219 39.168C219.555 39.488 219.819 39.872 220.011 40.32C220.203 40.768 220.299 41.24 220.299 41.736C220.299 42.248 220.203 42.728 220.011 43.176C219.819 43.608 219.555 43.984 219.219 44.304C218.899 44.624 218.515 44.872 218.067 45.048C217.635 45.24 217.163 45.336 216.651 45.336C216.139 45.336 215.659 45.24 215.211 45.048C214.763 44.872 214.379 44.624 214.059 44.304C213.739 43.984 213.483 43.608 213.291 43.176C213.115 42.728 213.027 42.248 213.027 41.736ZM268.649 10.296V45H262.961V22.584C262.961 21.688 263.009 20.72 263.105 19.68L252.617 39.384C252.121 40.328 251.361 40.8 250.337 40.8H249.425C248.401 40.8 247.641 40.328 247.145 39.384L236.537 19.608C236.585 20.136 236.625 20.656 236.657 21.168C236.689 21.68 236.705 22.152 236.705 22.584V45H231.017V10.296H235.889C236.177 10.296 236.425 10.304 236.633 10.32C236.841 10.336 237.025 10.376 237.185 10.44C237.361 10.504 237.513 10.608 237.641 10.752C237.785 10.896 237.921 11.088 238.049 11.328L248.441 30.6C248.713 31.112 248.961 31.64 249.185 32.184C249.425 32.728 249.657 33.288 249.881 33.864C250.105 33.272 250.337 32.704 250.577 32.16C250.817 31.6 251.073 31.064 251.345 30.552L261.593 11.328C261.721 11.088 261.857 10.896 262.001 10.752C262.145 10.608 262.297 10.504 262.457 10.44C262.633 10.376 262.825 10.336 263.033 10.32C263.241 10.304 263.489 10.296 263.777 10.296H268.649ZM299.528 31.896L295.304 20.352C295.096 19.84 294.88 19.232 294.656 18.528C294.432 17.824 294.208 17.064 293.984 16.248C293.776 17.064 293.56 17.832 293.336 18.552C293.112 19.256 292.896 19.872 292.688 20.4L288.488 31.896H299.528ZM310.928 45H305.936C305.376 45 304.92 44.864 304.568 44.592C304.216 44.304 303.952 43.952 303.776 43.536L301.184 36.456H286.808L284.216 43.536C284.088 43.904 283.84 44.24 283.472 44.544C283.104 44.848 282.648 45 282.104 45H277.064L290.72 10.296H297.296L310.928 45ZM329.808 26.808C331.024 26.808 332.08 26.656 332.976 26.352C333.888 26.048 334.632 25.632 335.208 25.104C335.8 24.56 336.24 23.92 336.528 23.184C336.816 22.448 336.96 21.64 336.96 20.76C336.96 19 336.376 17.648 335.208 16.704C334.056 15.76 332.288 15.288 329.904 15.288H325.776V26.808H329.808ZM346.416 45H340.584C339.48 45 338.68 44.568 338.184 43.704L330.888 32.592C330.616 32.176 330.312 31.88 329.976 31.704C329.656 31.528 329.176 31.44 328.536 31.44H325.776V45H319.32V10.296H329.904C332.256 10.296 334.272 10.544 335.952 11.04C337.648 11.52 339.032 12.2 340.104 13.08C341.192 13.96 341.992 15.016 342.504 16.248C343.016 17.464 343.272 18.808 343.272 20.28C343.272 21.448 343.096 22.552 342.744 23.592C342.408 24.632 341.912 25.576 341.256 26.424C340.616 27.272 339.816 28.016 338.856 28.656C337.912 29.296 336.832 29.8 335.616 30.168C336.032 30.408 336.416 30.696 336.768 31.032C337.12 31.352 337.44 31.736 337.728 32.184L346.416 45Z" fill="white"/>
<defs>
<clipPath id="clip0_174_3654">
<rect width="93.0679" height="55.2591" fill="white" transform="translate(0.932129)"/>
</clipPath>
</defs>
</svg>
