<svg width="34" height="25" viewBox="0 0 34 25" fill="none" xmlns="http://www.w3.org/2000/svg">
<path d="M28.7422 0H4.53823C2.03199 0 0 1.86563 0 4.16667V20.8333C0 23.1344 2.03199 25 4.53823 25H28.7422C31.2484 25 33.2804 23.1344 33.2804 20.8333V4.16667C33.2804 1.86563 31.2484 0 28.7422 0ZM28.7422 2.77778C28.9169 2.77778 29.0848 2.80486 29.2406 2.85521L16.6402 12.1104L4.03978 2.85521C4.1956 2.80486 4.36351 2.77778 4.53823 2.77778H28.7422ZM28.7422 22.2222H4.53823C3.70282 22.2222 3.02549 21.6003 3.02549 20.8333V5.66736L15.6951 14.9733C15.9712 15.1764 16.3055 15.2778 16.6402 15.2778C16.9749 15.2778 17.3092 15.1764 17.5853 14.9733L30.2549 5.66736V20.8333C30.2549 21.6003 29.5776 22.2222 28.7422 22.2222Z" fill="#D74FC7"/>
</svg>
