<svg width="27" height="28" viewBox="0 0 27 28" fill="none" xmlns="http://www.w3.org/2000/svg">
<path d="M26.8785 22.1679L26.7441 21.7507C26.4258 20.7761 25.3826 19.7596 24.4241 19.4918L20.8769 18.4935C19.915 18.2239 18.5428 18.5864 17.839 19.3114L16.5552 20.634C11.8895 19.3352 8.23097 15.566 6.97195 10.7604L8.25581 9.43772C8.95962 8.71266 9.31147 7.30088 9.04976 6.30987L8.08249 2.65369C7.82078 1.66449 6.83229 0.589713 5.88806 0.26542L5.48313 0.125163C4.53708 -0.19913 3.18786 0.128836 2.48411 0.853846L0.563722 2.83405C0.220646 3.18563 0.00137797 4.19121 0.00137797 4.19488C-0.0657887 10.4761 2.32494 16.5278 6.63775 20.971C10.94 25.4032 16.7922 27.8625 22.8716 27.8097C22.9034 27.8097 23.9077 27.5874 24.2508 27.2358L26.1712 25.2574C26.875 24.5324 27.1933 23.1425 26.8785 22.1679Z" fill="#D74FC7"/>
</svg>
